<?xml version="1.0" encoding="utf-8"?>
<!-- Generator: Adobe Illustrator 25.0.1, SVG Export Plug-In . SVG Version: 6.00 Build 0)  -->
<svg version="1.1" id="Layer_1" xmlns="http://www.w3.org/2000/svg" xmlns:xlink="http://www.w3.org/1999/xlink" x="0px" y="0px"
	 viewBox="0 0 600 423" style="enable-background:new 0 0 600 423;" xml:space="preserve">
<style type="text/css">
	.st0{fill:#F7E7F2;}
	.st1{fill:#EC6786;}
	.st2{fill:#2E2B60;}
	.st3{fill:#AB547A;}
	.st4{fill:#8693F7;}
	.st5{fill:#E6E6E6;}
	.st6{fill:#B3B3CD;}
	.st7{fill:#E8A845;}
	.st8{fill:#A78486;}
	.st9{fill:#FFFFFF;}
</style>
<path class="st0" d="M599,182.3h-22.69v-22.55h-6.25v22.55h-3.16v-22.55h-6.25v22.55h-11.37V124.5h-15.01v-5.31H512v5.31h-4.42
	v-17.67h-14.46v17.67h-14.62h-2.16h-10.4h-2.16h-26.82v78.13h-15.89v-24.07v-3.71v-9.3h-8.48v-5.75h-8.49v-6.23h-33.85v6.23h-8.49
	v5.75h-8.48v9.3v3.71v17.48h-10.31v6.6h-11.81v-25.82h-50.52v-32.09h-41.57v-8.85H212.3v8.85h-31.8v-26.07h-7.23v26.07h-3.66v-26.07
	h-7.23v26.07h-39.51v85.57h-10.28v5.47h-7.46v5.05h-7.45V249v2.14v1.12v1.12v2.26v2.24v2.93H43.86v42.35H32.92v-7.75H12.85v7.75
	H0.05v109.82c-2.32,0.44-4.33,1.72-5.73,3.5c-0.2-0.02-0.41-0.03-0.61-0.03c-3.26,0-5.9,2.64-5.9,5.9H0.05h18.37h25.44v0h97.68v0
	h15.73h58.46h11.62v0h103.81v0h14.36h1.31h7.13h25.76h1.31h51.85h4.08h17.35h9.47h2.16h1.98h8.42h2.16h6.1h51.25h13.42h14.36h1.67
	h11.01h16.77H599C599,417.06,599,182.3,599,182.3z"/>
<g>
	
		<rect x="30.42" y="317.19" transform="matrix(-1 -1.224647e-16 1.224647e-16 -1 138.5242 739.5469)" class="st1" width="77.68" height="105.18"/>
	
		<rect x="91.73" y="323.54" transform="matrix(-1 -1.224647e-16 1.224647e-16 -1 190.9561 656.4877)" class="st2" width="7.49" height="9.41"/>
	
		<rect x="78.62" y="323.54" transform="matrix(-1 -1.224647e-16 1.224647e-16 -1 164.7401 656.4877)" class="st3" width="7.49" height="9.41"/>
	
		<rect x="65.52" y="323.54" transform="matrix(-1 -1.224647e-16 1.224647e-16 -1 138.5242 656.4877)" class="st3" width="7.49" height="9.41"/>
	
		<rect x="52.41" y="323.54" transform="matrix(-1 -1.224647e-16 1.224647e-16 -1 112.3082 656.4877)" class="st2" width="7.49" height="9.41"/>
	
		<rect x="39.3" y="323.54" transform="matrix(-1 -1.224647e-16 1.224647e-16 -1 86.0922 656.4877)" class="st0" width="7.49" height="9.41"/>
	
		<rect x="91.73" y="335.57" transform="matrix(-1 -1.224647e-16 1.224647e-16 -1 190.9561 680.5536)" class="st2" width="7.49" height="9.41"/>
	
		<rect x="78.62" y="335.57" transform="matrix(-1 -1.224647e-16 1.224647e-16 -1 164.7401 680.5536)" class="st2" width="7.49" height="9.41"/>
	
		<rect x="65.52" y="335.57" transform="matrix(-1 -1.224647e-16 1.224647e-16 -1 138.5242 680.5536)" class="st2" width="7.49" height="9.41"/>
	
		<rect x="52.41" y="335.57" transform="matrix(-1 -1.224647e-16 1.224647e-16 -1 112.3082 680.5536)" class="st0" width="7.49" height="9.41"/>
	
		<rect x="39.3" y="335.57" transform="matrix(-1 -1.224647e-16 1.224647e-16 -1 86.0922 680.5536)" class="st2" width="7.49" height="9.41"/>
	
		<rect x="91.73" y="347.6" transform="matrix(-1 -1.224647e-16 1.224647e-16 -1 190.9561 704.6196)" class="st2" width="7.49" height="9.41"/>
	
		<rect x="78.62" y="347.6" transform="matrix(-1 -1.224647e-16 1.224647e-16 -1 164.7401 704.6196)" class="st0" width="7.49" height="9.41"/>
	
		<rect x="65.52" y="347.6" transform="matrix(-1 -1.224647e-16 1.224647e-16 -1 138.5242 704.6196)" class="st3" width="7.49" height="9.41"/>
	
		<rect x="52.41" y="347.6" transform="matrix(-1 -1.224647e-16 1.224647e-16 -1 112.3082 704.6196)" class="st2" width="7.49" height="9.41"/>
	
		<rect x="39.3" y="347.6" transform="matrix(-1 -1.224647e-16 1.224647e-16 -1 86.0922 704.6196)" class="st3" width="7.49" height="9.41"/>
	
		<rect x="91.73" y="359.64" transform="matrix(-1 -1.224647e-16 1.224647e-16 -1 190.9561 728.6855)" class="st3" width="7.49" height="9.41"/>
	
		<rect x="78.62" y="359.64" transform="matrix(-1 -1.224647e-16 1.224647e-16 -1 164.7401 728.6855)" class="st3" width="7.49" height="9.41"/>
	
		<rect x="65.52" y="359.64" transform="matrix(-1 -1.224647e-16 1.224647e-16 -1 138.5242 728.6855)" class="st2" width="7.49" height="9.41"/>
	
		<rect x="52.41" y="359.64" transform="matrix(-1 -1.224647e-16 1.224647e-16 -1 112.3082 728.6855)" class="st2" width="7.49" height="9.41"/>
	
		<rect x="39.3" y="359.64" transform="matrix(-1 -1.224647e-16 1.224647e-16 -1 86.0922 728.6855)" class="st0" width="7.49" height="9.41"/>
	
		<rect x="91.73" y="371.67" transform="matrix(-1 -1.224647e-16 1.224647e-16 -1 190.9561 752.7515)" class="st0" width="7.49" height="9.41"/>
	
		<rect x="78.62" y="371.67" transform="matrix(-1 -1.224647e-16 1.224647e-16 -1 164.7401 752.7515)" class="st2" width="7.49" height="9.41"/>
	
		<rect x="65.52" y="371.67" transform="matrix(-1 -1.224647e-16 1.224647e-16 -1 138.5242 752.7515)" class="st0" width="7.49" height="9.41"/>
	
		<rect x="52.41" y="371.67" transform="matrix(-1 -1.224647e-16 1.224647e-16 -1 112.3082 752.7515)" class="st3" width="7.49" height="9.41"/>
	
		<rect x="39.3" y="371.67" transform="matrix(-1 -1.224647e-16 1.224647e-16 -1 86.0922 752.7515)" class="st2" width="7.49" height="9.41"/>
	
		<rect x="91.73" y="383.7" transform="matrix(-1 -1.224647e-16 1.224647e-16 -1 190.9561 776.8174)" class="st0" width="7.49" height="9.41"/>
	
		<rect x="78.62" y="383.7" transform="matrix(-1 -1.224647e-16 1.224647e-16 -1 164.7401 776.8174)" class="st3" width="7.49" height="9.41"/>
	
		<rect x="65.52" y="383.7" transform="matrix(-1 -1.224647e-16 1.224647e-16 -1 138.5242 776.8174)" class="st2" width="7.49" height="9.41"/>
	
		<rect x="52.41" y="383.7" transform="matrix(-1 -1.224647e-16 1.224647e-16 -1 112.3082 776.8174)" class="st2" width="7.49" height="9.41"/>
	
		<rect x="39.3" y="383.7" transform="matrix(-1 -1.224647e-16 1.224647e-16 -1 86.0922 776.8174)" class="st3" width="7.49" height="9.41"/>
	
		<rect x="91.73" y="395.73" transform="matrix(-1 -1.224647e-16 1.224647e-16 -1 190.9561 800.8834)" class="st2" width="7.49" height="9.41"/>
	
		<rect x="78.62" y="395.73" transform="matrix(-1 -1.224647e-16 1.224647e-16 -1 164.7401 800.8834)" class="st0" width="7.49" height="9.41"/>
	
		<rect x="65.52" y="395.73" transform="matrix(-1 -1.224647e-16 1.224647e-16 -1 138.5242 800.8834)" class="st3" width="7.49" height="9.41"/>
	
		<rect x="52.41" y="395.73" transform="matrix(-1 -1.224647e-16 1.224647e-16 -1 112.3082 800.8834)" class="st0" width="7.49" height="9.41"/>
	
		<rect x="39.3" y="395.73" transform="matrix(-1 -1.224647e-16 1.224647e-16 -1 86.0922 800.8834)" class="st2" width="7.49" height="9.41"/>
</g>
<polygon class="st4" points="524.09,241.11 524.09,235.67 500.5,235.67 500.5,241.11 432.24,241.11 432.24,422.36 534.84,422.36 
	534.84,241.11 "/>
<path class="st0" d="M341.5,98.71c-0.23,0-0.46,0-0.69,0.01c-14.12,0.29-27.93-3.86-40-11.21c-5.79-3.52-12.58-5.55-19.85-5.55
	c-17.03,0-32.3,7.58-36.74,26.88c-1.88,8.17,4.34,15.96,12.72,15.96h105.54c6.07,0,9.64-6.81,6.2-11.8
	C362.73,104.36,352.78,98.71,341.5,98.71z"/>
<g>
	
		<rect x="565.71" y="313.72" transform="matrix(-1.836970e-16 1 -1 -1.836970e-16 892.0673 -248.0628)" class="st5" width="8.72" height="16.56"/>
	
		<rect x="530.53" y="324.04" transform="matrix(-1 -1.224647e-16 1.224647e-16 -1 1119.4357 746.3989)" class="st5" width="58.37" height="98.32"/>
	
		<rect x="535.45" y="327.27" transform="matrix(-1 -1.224647e-16 1.224647e-16 -1 1071.9073 746.3989)" class="st6" width="1.01" height="91.85"/>
	
		<rect x="541.55" y="333.77" transform="matrix(-1 -1.224647e-16 1.224647e-16 -1 1125.2157 673.8179)" class="st3" width="42.11" height="6.29"/>
	
		<rect x="541.55" y="345.22" transform="matrix(-1 -1.224647e-16 1.224647e-16 -1 1125.2157 696.7243)" class="st7" width="42.11" height="6.29"/>
	
		<rect x="541.55" y="356.67" transform="matrix(-1 -1.224647e-16 1.224647e-16 -1 1125.2157 719.6307)" class="st8" width="42.11" height="6.29"/>
</g>
<g>
	
		<rect x="260.92" y="193.45" transform="matrix(-1.836970e-16 1 -1 -1.836970e-16 483.9787 -55.1379)" class="st7" width="17.28" height="41.94"/>
	
		<rect x="263.81" y="192.43" transform="matrix(-1.836970e-16 1 -1 -1.836970e-16 475.9537 -63.1629)" class="st7" width="11.51" height="27.93"/>
	
		<rect x="241.59" y="210.52" transform="matrix(-1 -1.224647e-16 1.224647e-16 -1 539.1166 591.4412)" class="st7" width="55.93" height="170.4"/>
	
		<rect x="241.59" y="218.19" transform="matrix(-1 -1.224647e-16 1.224647e-16 -1 539.1166 439.4422)" class="st7" width="55.93" height="3.06"/>
	<path class="st2" d="M247.67,276.25h10.8v-11.97c0-2.56-2.08-4.64-4.64-4.64h-1.51c-2.56,0-4.64,2.08-4.64,4.64V276.25z"/>
	<path class="st0" d="M264.84,276.25h10.8v-11.97c0-2.56-2.08-4.64-4.64-4.64h-1.51c-2.56,0-4.64,2.08-4.64,4.64V276.25z"/>
	<path class="st2" d="M247.67,299.96h10.8v-11.97c0-2.56-2.08-4.64-4.64-4.64h-1.51c-2.56,0-4.64,2.08-4.64,4.64V299.96z"/>
	<path class="st8" d="M264.84,299.96h10.8v-11.97c0-2.56-2.08-4.64-4.64-4.64h-1.51c-2.56,0-4.64,2.08-4.64,4.64V299.96z"/>
	<path class="st0" d="M247.67,323.67h10.8V311.7c0-2.56-2.08-4.64-4.64-4.64h-1.51c-2.56,0-4.64,2.08-4.64,4.64V323.67z"/>
	<path class="st2" d="M264.84,323.67h10.8V311.7c0-2.56-2.08-4.64-4.64-4.64h-1.51c-2.56,0-4.64,2.08-4.64,4.64V323.67z"/>
	<path class="st2" d="M247.67,347.38h10.8v-11.97c0-2.56-2.08-4.64-4.64-4.64h-1.51c-2.56,0-4.64,2.08-4.64,4.64V347.38z"/>
	<path class="st0" d="M264.84,347.38h10.8v-11.97c0-2.56-2.08-4.64-4.64-4.64h-1.51c-2.56,0-4.64,2.08-4.64,4.64V347.38z"/>
</g>
<g>
	<rect x="113.54" y="205.73" class="st2" width="5.16" height="19.1"/>
	<rect x="121.31" y="205.73" class="st2" width="5.16" height="19.1"/>
	<rect x="90.42" y="224.33" class="st2" width="112.53" height="198.03"/>
	
		<rect x="184.37" y="237.8" transform="matrix(6.123234e-17 -1 1 6.123234e-17 -53.4257 429.6274)" class="st2" width="7.46" height="7.46"/>
	
		<rect x="170.49" y="237.8" transform="matrix(6.123234e-17 -1 1 6.123234e-17 -67.3107 415.7424)" class="st0" width="7.46" height="7.46"/>
	
		<rect x="156.6" y="237.8" transform="matrix(6.123234e-17 -1 1 6.123234e-17 -81.1957 401.8575)" class="st2" width="7.46" height="7.46"/>
	
		<rect x="142.72" y="237.8" transform="matrix(6.123234e-17 -1 1 6.123234e-17 -95.0807 387.9724)" class="st2" width="7.46" height="7.46"/>
	
		<rect x="128.83" y="237.8" transform="matrix(6.123234e-17 -1 1 6.123234e-17 -108.9657 374.0875)" class="st2" width="7.46" height="7.46"/>
	
		<rect x="114.95" y="237.8" transform="matrix(6.123234e-17 -1 1 6.123234e-17 -122.8506 360.2025)" class="st0" width="7.46" height="7.46"/>
	
		<rect x="101.06" y="237.8" transform="matrix(6.123234e-17 -1 1 6.123234e-17 -136.7356 346.3175)" class="st2" width="7.46" height="7.46"/>
	
		<rect x="184.37" y="252.41" transform="matrix(6.123234e-17 -1 1 6.123234e-17 -68.0399 444.2415)" class="st2" width="7.46" height="7.46"/>
	
		<rect x="170.49" y="252.41" transform="matrix(6.123234e-17 -1 1 6.123234e-17 -81.9248 430.3566)" class="st0" width="7.46" height="7.46"/>
	
		<rect x="156.6" y="252.41" transform="matrix(6.123234e-17 -1 1 6.123234e-17 -95.8098 416.4716)" class="st2" width="7.46" height="7.46"/>
	
		<rect x="142.72" y="252.41" transform="matrix(6.123234e-17 -1 1 6.123234e-17 -109.6948 402.5866)" class="st2" width="7.46" height="7.46"/>
	
		<rect x="128.83" y="252.41" transform="matrix(6.123234e-17 -1 1 6.123234e-17 -123.5798 388.7016)" class="st0" width="7.46" height="7.46"/>
	
		<rect x="114.95" y="252.41" transform="matrix(6.123234e-17 -1 1 6.123234e-17 -137.4648 374.8167)" class="st2" width="7.46" height="7.46"/>
	
		<rect x="101.06" y="252.41" transform="matrix(6.123234e-17 -1 1 6.123234e-17 -151.3497 360.9317)" class="st2" width="7.46" height="7.46"/>
	
		<rect x="184.37" y="267.02" transform="matrix(6.123234e-17 -1 1 6.123234e-17 -82.654 458.8557)" class="st2" width="7.46" height="7.46"/>
	
		<rect x="170.49" y="267.02" transform="matrix(6.123234e-17 -1 1 6.123234e-17 -96.539 444.9707)" class="st2" width="7.46" height="7.46"/>
	
		<rect x="156.6" y="267.02" transform="matrix(6.123234e-17 -1 1 6.123234e-17 -110.424 431.0857)" class="st2" width="7.46" height="7.46"/>
	
		<rect x="142.72" y="267.02" transform="matrix(6.123234e-17 -1 1 6.123234e-17 -124.3089 417.2007)" class="st2" width="7.46" height="7.46"/>
	
		<rect x="128.83" y="267.02" transform="matrix(6.123234e-17 -1 1 6.123234e-17 -138.1939 403.3157)" class="st0" width="7.46" height="7.46"/>
	
		<rect x="114.95" y="267.02" transform="matrix(6.123234e-17 -1 1 6.123234e-17 -152.0789 389.4308)" class="st2" width="7.46" height="7.46"/>
	
		<rect x="101.06" y="267.02" transform="matrix(6.123234e-17 -1 1 6.123234e-17 -165.9639 375.5458)" class="st2" width="7.46" height="7.46"/>
	
		<rect x="184.37" y="281.64" transform="matrix(6.123234e-17 -1 1 6.123234e-17 -97.2681 473.4698)" class="st2" width="7.46" height="7.46"/>
	
		<rect x="170.49" y="281.64" transform="matrix(6.123234e-17 -1 1 6.123234e-17 -111.1531 459.5848)" class="st2" width="7.46" height="7.46"/>
	
		<rect x="156.6" y="281.64" transform="matrix(6.123234e-17 -1 1 6.123234e-17 -125.0381 445.6998)" class="st2" width="7.46" height="7.46"/>
	
		<rect x="142.72" y="281.64" transform="matrix(6.123234e-17 -1 1 6.123234e-17 -138.9231 431.8148)" class="st0" width="7.46" height="7.46"/>
	
		<rect x="128.83" y="281.64" transform="matrix(6.123234e-17 -1 1 6.123234e-17 -152.808 417.9299)" class="st2" width="7.46" height="7.46"/>
	
		<rect x="114.95" y="281.64" transform="matrix(6.123234e-17 -1 1 6.123234e-17 -166.693 404.0449)" class="st2" width="7.46" height="7.46"/>
	
		<rect x="101.06" y="281.64" transform="matrix(6.123234e-17 -1 1 6.123234e-17 -180.578 390.1599)" class="st2" width="7.46" height="7.46"/>
	
		<rect x="184.37" y="296.25" transform="matrix(6.123234e-17 -1 1 6.123234e-17 -111.8823 488.084)" class="st2" width="7.46" height="7.46"/>
	
		<rect x="170.49" y="296.25" transform="matrix(6.123234e-17 -1 1 6.123234e-17 -125.7672 474.1989)" class="st0" width="7.46" height="7.46"/>
	
		<rect x="156.6" y="296.25" transform="matrix(6.123234e-17 -1 1 6.123234e-17 -139.6522 460.314)" class="st2" width="7.46" height="7.46"/>
	
		<rect x="142.72" y="296.25" transform="matrix(6.123234e-17 -1 1 6.123234e-17 -153.5372 446.429)" class="st2" width="7.46" height="7.46"/>
	
		<rect x="128.83" y="296.25" transform="matrix(6.123234e-17 -1 1 6.123234e-17 -167.4222 432.544)" class="st2" width="7.46" height="7.46"/>
	
		<rect x="114.95" y="296.25" transform="matrix(6.123234e-17 -1 1 6.123234e-17 -181.3072 418.6591)" class="st2" width="7.46" height="7.46"/>
	
		<rect x="101.06" y="296.25" transform="matrix(6.123234e-17 -1 1 6.123234e-17 -195.1921 404.774)" class="st2" width="7.46" height="7.46"/>
	
		<rect x="184.37" y="310.87" transform="matrix(6.123234e-17 -1 1 6.123234e-17 -126.4964 502.6981)" class="st2" width="7.46" height="7.46"/>
	
		<rect x="170.49" y="310.87" transform="matrix(6.123234e-17 -1 1 6.123234e-17 -140.3814 488.8131)" class="st0" width="7.46" height="7.46"/>
	
		<rect x="156.6" y="310.87" transform="matrix(6.123234e-17 -1 1 6.123234e-17 -154.2664 474.9281)" class="st2" width="7.46" height="7.46"/>
	
		<rect x="142.72" y="310.87" transform="matrix(6.123234e-17 -1 1 6.123234e-17 -168.1514 461.0431)" class="st0" width="7.46" height="7.46"/>
	
		<rect x="128.83" y="310.87" transform="matrix(6.123234e-17 -1 1 6.123234e-17 -182.0363 447.1581)" class="st2" width="7.46" height="7.46"/>
	
		<rect x="114.95" y="310.87" transform="matrix(6.123234e-17 -1 1 6.123234e-17 -195.9213 433.2732)" class="st2" width="7.46" height="7.46"/>
	
		<rect x="101.06" y="310.87" transform="matrix(6.123234e-17 -1 1 6.123234e-17 -209.8063 419.3882)" class="st0" width="7.46" height="7.46"/>
	
		<rect x="184.37" y="325.48" transform="matrix(6.123234e-17 -1 1 6.123234e-17 -141.1105 517.3122)" class="st2" width="7.46" height="7.46"/>
	
		<rect x="170.49" y="325.48" transform="matrix(6.123234e-17 -1 1 6.123234e-17 -154.9955 503.4272)" class="st0" width="7.46" height="7.46"/>
	
		<rect x="156.6" y="325.48" transform="matrix(6.123234e-17 -1 1 6.123234e-17 -168.8805 489.5422)" class="st2" width="7.46" height="7.46"/>
	
		<rect x="142.72" y="325.48" transform="matrix(6.123234e-17 -1 1 6.123234e-17 -182.7655 475.6573)" class="st2" width="7.46" height="7.46"/>
	
		<rect x="128.83" y="325.48" transform="matrix(6.123234e-17 -1 1 6.123234e-17 -196.6505 461.7723)" class="st2" width="7.46" height="7.46"/>
	
		<rect x="114.95" y="325.48" transform="matrix(6.123234e-17 -1 1 6.123234e-17 -210.5354 447.8873)" class="st2" width="7.46" height="7.46"/>
	
		<rect x="101.06" y="325.48" transform="matrix(6.123234e-17 -1 1 6.123234e-17 -224.4204 434.0023)" class="st2" width="7.46" height="7.46"/>
	
		<rect x="184.37" y="340.1" transform="matrix(6.123234e-17 -1 1 6.123234e-17 -155.7247 531.9263)" class="st2" width="7.46" height="7.46"/>
	
		<rect x="170.49" y="340.1" transform="matrix(6.123234e-17 -1 1 6.123234e-17 -169.6096 518.0414)" class="st2" width="7.46" height="7.46"/>
	
		<rect x="156.6" y="340.1" transform="matrix(6.123234e-17 -1 1 6.123234e-17 -183.4946 504.1564)" class="st2" width="7.46" height="7.46"/>
	
		<rect x="142.72" y="340.1" transform="matrix(6.123234e-17 -1 1 6.123234e-17 -197.3796 490.2714)" class="st2" width="7.46" height="7.46"/>
	
		<rect x="128.83" y="340.1" transform="matrix(6.123234e-17 -1 1 6.123234e-17 -211.2646 476.3864)" class="st0" width="7.46" height="7.46"/>
	
		<rect x="114.95" y="340.1" transform="matrix(6.123234e-17 -1 1 6.123234e-17 -225.1496 462.5014)" class="st2" width="7.46" height="7.46"/>
	
		<rect x="101.06" y="340.1" transform="matrix(6.123234e-17 -1 1 6.123234e-17 -239.0345 448.6165)" class="st2" width="7.46" height="7.46"/>
	
		<rect x="184.37" y="354.71" transform="matrix(6.123234e-17 -1 1 6.123234e-17 -170.3388 546.5405)" class="st2" width="7.46" height="7.46"/>
	
		<rect x="170.49" y="354.71" transform="matrix(6.123234e-17 -1 1 6.123234e-17 -184.2238 532.6555)" class="st2" width="7.46" height="7.46"/>
	
		<rect x="156.6" y="354.71" transform="matrix(6.123234e-17 -1 1 6.123234e-17 -198.1088 518.7705)" class="st2" width="7.46" height="7.46"/>
	
		<rect x="142.72" y="354.71" transform="matrix(6.123234e-17 -1 1 6.123234e-17 -211.9937 504.8855)" class="st2" width="7.46" height="7.46"/>
	
		<rect x="128.83" y="354.71" transform="matrix(6.123234e-17 -1 1 6.123234e-17 -225.8787 491.0005)" class="st0" width="7.46" height="7.46"/>
	
		<rect x="114.95" y="354.71" transform="matrix(6.123234e-17 -1 1 6.123234e-17 -239.7637 477.1156)" class="st2" width="7.46" height="7.46"/>
	
		<rect x="101.06" y="354.71" transform="matrix(6.123234e-17 -1 1 6.123234e-17 -253.6487 463.2306)" class="st2" width="7.46" height="7.46"/>
	
		<rect x="184.37" y="369.32" transform="matrix(6.123234e-17 -1 1 6.123234e-17 -184.9529 561.1546)" class="st2" width="7.46" height="7.46"/>
	
		<rect x="170.49" y="369.32" transform="matrix(6.123234e-17 -1 1 6.123234e-17 -198.8379 547.2696)" class="st2" width="7.46" height="7.46"/>
	
		<rect x="156.6" y="369.32" transform="matrix(6.123234e-17 -1 1 6.123234e-17 -212.7229 533.3846)" class="st0" width="7.46" height="7.46"/>
	
		<rect x="142.72" y="369.32" transform="matrix(6.123234e-17 -1 1 6.123234e-17 -226.6079 519.4996)" class="st2" width="7.46" height="7.46"/>
	
		<rect x="128.83" y="369.32" transform="matrix(6.123234e-17 -1 1 6.123234e-17 -240.4928 505.6147)" class="st2" width="7.46" height="7.46"/>
	
		<rect x="114.95" y="369.32" transform="matrix(6.123234e-17 -1 1 6.123234e-17 -254.3778 491.7297)" class="st2" width="7.46" height="7.46"/>
	
		<rect x="101.06" y="369.32" transform="matrix(6.123234e-17 -1 1 6.123234e-17 -268.2628 477.8447)" class="st2" width="7.46" height="7.46"/>
</g>
<path class="st0" d="M513.69,69.77c-9.75,0-18.35,4.95-23.42,12.47c-3.42,5.07,0.26,11.9,6.37,11.9h72.78c2.76,0,4.44-3.03,3-5.39
	c-4.28-7.01-12-11.69-20.81-11.69c-0.87,0-1.73,0.05-2.57,0.13c-7.8,0.82-15.63-0.85-22.63-4.39
	C522.59,70.86,518.27,69.77,513.69,69.77z"/>
<path class="st0" d="M-41.74,269.86c9.75,0,18.35,4.95,23.42,12.47c3.42,5.07-0.26,11.9-6.37,11.9h-72.78c-2.76,0-4.44-3.03-3-5.39
	c4.28-7.01,12-11.69,20.81-11.69c0.87,0,1.73,0.05,2.57,0.13c7.8,0.82,15.63-0.85,22.63-4.39
	C-50.64,270.95-46.32,269.86-41.74,269.86z"/>
<path class="st0" d="M402.35,28.92c-1.14,0.22-2.23,0.52-3.28,0.92c-5.87,2.21-12.08,3.43-18.35,3.36c-0.09,0-0.18,0-0.27,0
	c-4.36,0-8.53,0.46-12.1,2.79c-2.65,1.73-5.62,2.9-8.7,3.65c-3.99,0.97-7.56,2.99-10.4,5.76c-3.91,3.79-1.25,10.41,4.19,10.41h62.17
	c6.02,0,10.64-5.45,9.51-11.37c-0.03-0.15-0.06-0.31-0.09-0.46C422.83,33.69,412.7,26.96,402.35,28.92z"/>
<g>
	<polygon class="st7" points="123.31,359.69 146.92,422.36 99.71,422.36 	"/>
	
		<rect x="122.62" y="384.95" transform="matrix(-1 -1.224647e-16 1.224647e-16 -1 246.6263 807.3091)" class="st2" width="1.38" height="37.41"/>
	
		<rect x="125.87" y="387.78" transform="matrix(0.7071 -0.7071 0.7071 0.7071 -240.3066 204.3841)" class="st2" width="1.38" height="8.98"/>
	
		<rect x="125.87" y="403.73" transform="matrix(0.7071 -0.7071 0.7071 0.7071 -251.586 209.0603)" class="st2" width="1.38" height="8.98"/>
	
		<rect x="119.41" y="395.75" transform="matrix(0.7071 0.7071 -0.7071 0.7071 318.1895 32.3059)" class="st2" width="1.38" height="8.98"/>
	
		<rect x="119.41" y="410.19" transform="matrix(0.7071 0.7071 -0.7071 0.7071 328.3972 36.5341)" class="st2" width="1.38" height="8.98"/>
</g>
<g>
	
		<rect x="135.84" y="176.66" transform="matrix(-1 -1.224647e-16 1.224647e-16 -1 364.3322 599.0169)" class="st4" width="92.64" height="245.7"/>
	
		<rect x="194.22" y="176.66" transform="matrix(-1 -1.224647e-16 1.224647e-16 -1 390.2261 599.0169)" class="st2" width="1.78" height="245.7"/>
	
		<rect x="204.58" y="176.66" transform="matrix(-1 -1.224647e-16 1.224647e-16 -1 410.9467 599.0169)" class="st2" width="1.78" height="245.7"/>
	
		<rect x="169.3" y="213.05" transform="matrix(-1 -1.224647e-16 1.224647e-16 -1 350.1264 437.6115)" class="st0" width="11.52" height="11.52"/>
	
		<rect x="169.3" y="258.93" transform="matrix(-1 -1.224647e-16 1.224647e-16 -1 350.1264 529.3824)" class="st2" width="11.52" height="11.52"/>
	
		<rect x="169.3" y="304.82" transform="matrix(-1 -1.224647e-16 1.224647e-16 -1 350.1264 621.1533)" class="st2" width="11.52" height="11.52"/>
	
		<rect x="169.3" y="350.7" transform="matrix(-1 -1.224647e-16 1.224647e-16 -1 350.1264 712.9242)" class="st2" width="11.52" height="11.52"/>
	
		<rect x="148.23" y="190.1" transform="matrix(-1 -1.224647e-16 1.224647e-16 -1 307.9722 391.726)" class="st2" width="11.52" height="11.52"/>
	
		<rect x="148.23" y="235.99" transform="matrix(-1 -1.224647e-16 1.224647e-16 -1 307.9722 483.4969)" class="st2" width="11.52" height="11.52"/>
	
		<rect x="148.23" y="281.88" transform="matrix(-1 -1.224647e-16 1.224647e-16 -1 307.9722 575.2679)" class="st0" width="11.52" height="11.52"/>
	
		<rect x="148.23" y="327.76" transform="matrix(-1 -1.224647e-16 1.224647e-16 -1 307.9722 667.0388)" class="st0" width="11.52" height="11.52"/>
	
		<rect x="170.24" y="162.08" transform="matrix(-1 -1.224647e-16 1.224647e-16 -1 352.406 342.5178)" class="st4" width="11.93" height="18.36"/>
	
		<rect x="151.45" y="169.06" transform="matrix(-1.836970e-16 1 -1 -1.836970e-16 335.6461 20.828)" class="st4" width="11.93" height="18.36"/>
</g>
<g>
	
		<rect x="449.03" y="171.83" transform="matrix(-1 -1.224647e-16 1.224647e-16 -1 904.0159 365.7529)" class="st2" width="5.96" height="22.08"/>
	
		<rect x="440.05" y="171.83" transform="matrix(-1 -1.224647e-16 1.224647e-16 -1 886.0536 365.7529)" class="st2" width="5.96" height="22.08"/>
	
		<rect x="395.47" y="182.3" transform="matrix(-1.836970e-16 1 -1 -1.836970e-16 596.1154 -209.4288)" class="st2" width="14.6" height="22.08"/>
	
		<rect x="357.44" y="193.34" transform="matrix(-1 -1.224647e-16 1.224647e-16 -1 845.0141 615.7042)" class="st2" width="130.14" height="229.02"/>
	
		<rect x="370.29" y="208.92" transform="matrix(6.123234e-17 -1 1 6.123234e-17 161.3769 587.8361)" class="st2" width="8.63" height="8.63"/>
	
		<rect x="386.35" y="208.92" transform="matrix(6.123234e-17 -1 1 6.123234e-17 177.4346 603.8937)" class="st0" width="8.63" height="8.63"/>
	
		<rect x="402.41" y="208.92" transform="matrix(6.123234e-17 -1 1 6.123234e-17 193.4923 619.9515)" class="st2" width="8.63" height="8.63"/>
	
		<rect x="418.47" y="208.92" transform="matrix(6.123234e-17 -1 1 6.123234e-17 209.55 636.0092)" class="st2" width="8.63" height="8.63"/>
	
		<rect x="434.52" y="208.92" transform="matrix(6.123234e-17 -1 1 6.123234e-17 225.6077 652.0668)" class="st2" width="8.63" height="8.63"/>
	
		<rect x="450.58" y="208.92" transform="matrix(6.123234e-17 -1 1 6.123234e-17 241.6654 668.1246)" class="st0" width="8.63" height="8.63"/>
	
		<rect x="466.64" y="208.92" transform="matrix(6.123234e-17 -1 1 6.123234e-17 257.7231 684.1823)" class="st2" width="8.63" height="8.63"/>
	
		<rect x="370.29" y="225.82" transform="matrix(6.123234e-17 -1 1 6.123234e-17 144.4759 604.737)" class="st2" width="8.63" height="8.63"/>
	
		<rect x="386.35" y="225.82" transform="matrix(6.123234e-17 -1 1 6.123234e-17 160.5336 620.7947)" class="st0" width="8.63" height="8.63"/>
	
		<rect x="402.41" y="225.82" transform="matrix(6.123234e-17 -1 1 6.123234e-17 176.5913 636.8524)" class="st2" width="8.63" height="8.63"/>
	
		<rect x="418.47" y="225.82" transform="matrix(6.123234e-17 -1 1 6.123234e-17 192.649 652.9101)" class="st2" width="8.63" height="8.63"/>
	
		<rect x="434.52" y="225.82" transform="matrix(6.123234e-17 -1 1 6.123234e-17 208.7068 668.9678)" class="st0" width="8.63" height="8.63"/>
	
		<rect x="450.58" y="225.82" transform="matrix(6.123234e-17 -1 1 6.123234e-17 224.7645 685.0255)" class="st2" width="8.63" height="8.63"/>
	
		<rect x="466.64" y="225.82" transform="matrix(6.123234e-17 -1 1 6.123234e-17 240.8222 701.0832)" class="st2" width="8.63" height="8.63"/>
	
		<rect x="370.29" y="242.72" transform="matrix(6.123234e-17 -1 1 6.123234e-17 127.575 621.6379)" class="st2" width="8.63" height="8.63"/>
	
		<rect x="386.35" y="242.72" transform="matrix(6.123234e-17 -1 1 6.123234e-17 143.6327 637.6957)" class="st2" width="8.63" height="8.63"/>
	
		<rect x="402.41" y="242.72" transform="matrix(6.123234e-17 -1 1 6.123234e-17 159.6904 653.7534)" class="st2" width="8.63" height="8.63"/>
	
		<rect x="418.47" y="242.72" transform="matrix(6.123234e-17 -1 1 6.123234e-17 175.7481 669.811)" class="st2" width="8.63" height="8.63"/>
	
		<rect x="434.52" y="242.72" transform="matrix(6.123234e-17 -1 1 6.123234e-17 191.8058 685.8688)" class="st0" width="8.63" height="8.63"/>
	
		<rect x="450.58" y="242.72" transform="matrix(6.123234e-17 -1 1 6.123234e-17 207.8635 701.9265)" class="st2" width="8.63" height="8.63"/>
	
		<rect x="466.64" y="242.72" transform="matrix(6.123234e-17 -1 1 6.123234e-17 223.9212 717.9842)" class="st2" width="8.63" height="8.63"/>
	
		<rect x="370.29" y="259.62" transform="matrix(6.123234e-17 -1 1 6.123234e-17 110.674 638.5389)" class="st2" width="8.63" height="8.63"/>
	
		<rect x="386.35" y="259.62" transform="matrix(6.123234e-17 -1 1 6.123234e-17 126.7317 654.5966)" class="st2" width="8.63" height="8.63"/>
	
		<rect x="402.41" y="259.62" transform="matrix(6.123234e-17 -1 1 6.123234e-17 142.7894 670.6543)" class="st2" width="8.63" height="8.63"/>
	
		<rect x="418.47" y="259.62" transform="matrix(6.123234e-17 -1 1 6.123234e-17 158.8471 686.712)" class="st0" width="8.63" height="8.63"/>
	
		<rect x="434.52" y="259.62" transform="matrix(6.123234e-17 -1 1 6.123234e-17 174.9048 702.7697)" class="st2" width="8.63" height="8.63"/>
	
		<rect x="450.58" y="259.62" transform="matrix(6.123234e-17 -1 1 6.123234e-17 190.9625 718.8275)" class="st2" width="8.63" height="8.63"/>
	
		<rect x="466.64" y="259.62" transform="matrix(6.123234e-17 -1 1 6.123234e-17 207.0202 734.8851)" class="st2" width="8.63" height="8.63"/>
	
		<rect x="370.29" y="276.52" transform="matrix(6.123234e-17 -1 1 6.123234e-17 93.7731 655.4399)" class="st2" width="8.63" height="8.63"/>
	
		<rect x="386.35" y="276.52" transform="matrix(6.123234e-17 -1 1 6.123234e-17 109.8308 671.4976)" class="st0" width="8.63" height="8.63"/>
	
		<rect x="402.41" y="276.52" transform="matrix(6.123234e-17 -1 1 6.123234e-17 125.8885 687.5553)" class="st2" width="8.63" height="8.63"/>
	
		<rect x="418.47" y="276.52" transform="matrix(6.123234e-17 -1 1 6.123234e-17 141.9462 703.613)" class="st2" width="8.63" height="8.63"/>
	
		<rect x="434.52" y="276.52" transform="matrix(6.123234e-17 -1 1 6.123234e-17 158.0039 719.6707)" class="st2" width="8.63" height="8.63"/>
	
		<rect x="450.58" y="276.52" transform="matrix(6.123234e-17 -1 1 6.123234e-17 174.0616 735.7284)" class="st2" width="8.63" height="8.63"/>
	
		<rect x="466.64" y="276.52" transform="matrix(6.123234e-17 -1 1 6.123234e-17 190.1193 751.7861)" class="st2" width="8.63" height="8.63"/>
	
		<rect x="370.29" y="293.42" transform="matrix(6.123234e-17 -1 1 6.123234e-17 76.8721 672.3408)" class="st2" width="8.63" height="8.63"/>
	
		<rect x="386.35" y="293.42" transform="matrix(6.123234e-17 -1 1 6.123234e-17 92.9298 688.3986)" class="st0" width="8.63" height="8.63"/>
	
		<rect x="402.41" y="293.42" transform="matrix(6.123234e-17 -1 1 6.123234e-17 108.9875 704.4562)" class="st2" width="8.63" height="8.63"/>
	
		<rect x="418.47" y="293.42" transform="matrix(6.123234e-17 -1 1 6.123234e-17 125.0452 720.5139)" class="st0" width="8.63" height="8.63"/>
	
		<rect x="434.52" y="293.42" transform="matrix(6.123234e-17 -1 1 6.123234e-17 141.1029 736.5717)" class="st2" width="8.63" height="8.63"/>
	
		<rect x="450.58" y="293.42" transform="matrix(6.123234e-17 -1 1 6.123234e-17 157.1606 752.6293)" class="st2" width="8.63" height="8.63"/>
	
		<rect x="466.64" y="293.42" transform="matrix(6.123234e-17 -1 1 6.123234e-17 173.2183 768.6871)" class="st0" width="8.63" height="8.63"/>
	
		<rect x="370.29" y="310.32" transform="matrix(6.123234e-17 -1 1 6.123234e-17 59.9711 689.2418)" class="st2" width="8.63" height="8.63"/>
	
		<rect x="386.35" y="310.32" transform="matrix(6.123234e-17 -1 1 6.123234e-17 76.0289 705.2995)" class="st0" width="8.63" height="8.63"/>
	
		<rect x="402.41" y="310.32" transform="matrix(6.123234e-17 -1 1 6.123234e-17 92.0866 721.3572)" class="st2" width="8.63" height="8.63"/>
	
		<rect x="418.47" y="310.32" transform="matrix(6.123234e-17 -1 1 6.123234e-17 108.1443 737.4149)" class="st2" width="8.63" height="8.63"/>
	
		<rect x="434.52" y="310.32" transform="matrix(6.123234e-17 -1 1 6.123234e-17 124.202 753.4726)" class="st2" width="8.63" height="8.63"/>
	
		<rect x="450.58" y="310.32" transform="matrix(6.123234e-17 -1 1 6.123234e-17 140.2597 769.5303)" class="st2" width="8.63" height="8.63"/>
	
		<rect x="466.64" y="310.32" transform="matrix(6.123234e-17 -1 1 6.123234e-17 156.3174 785.588)" class="st2" width="8.63" height="8.63"/>
	
		<rect x="370.29" y="327.22" transform="matrix(6.123234e-17 -1 1 6.123234e-17 43.0702 706.1428)" class="st2" width="8.63" height="8.63"/>
	
		<rect x="386.35" y="327.22" transform="matrix(6.123234e-17 -1 1 6.123234e-17 59.1279 722.2004)" class="st2" width="8.63" height="8.63"/>
	
		<rect x="402.41" y="327.22" transform="matrix(6.123234e-17 -1 1 6.123234e-17 75.1856 738.2581)" class="st2" width="8.63" height="8.63"/>
	
		<rect x="418.47" y="327.22" transform="matrix(6.123234e-17 -1 1 6.123234e-17 91.2433 754.3159)" class="st2" width="8.63" height="8.63"/>
	
		<rect x="434.52" y="327.22" transform="matrix(6.123234e-17 -1 1 6.123234e-17 107.301 770.3735)" class="st0" width="8.63" height="8.63"/>
	
		<rect x="450.58" y="327.22" transform="matrix(6.123234e-17 -1 1 6.123234e-17 123.3587 786.4313)" class="st2" width="8.63" height="8.63"/>
	
		<rect x="466.64" y="327.22" transform="matrix(6.123234e-17 -1 1 6.123234e-17 139.4164 802.489)" class="st2" width="8.63" height="8.63"/>
	
		<rect x="370.29" y="344.12" transform="matrix(6.123234e-17 -1 1 6.123234e-17 26.1692 723.0437)" class="st2" width="8.63" height="8.63"/>
	
		<rect x="386.35" y="344.12" transform="matrix(6.123234e-17 -1 1 6.123234e-17 42.2269 739.1014)" class="st2" width="8.63" height="8.63"/>
	
		<rect x="402.41" y="344.12" transform="matrix(6.123234e-17 -1 1 6.123234e-17 58.2846 755.1591)" class="st2" width="8.63" height="8.63"/>
	
		<rect x="418.47" y="344.12" transform="matrix(6.123234e-17 -1 1 6.123234e-17 74.3423 771.2168)" class="st2" width="8.63" height="8.63"/>
	
		<rect x="434.52" y="344.12" transform="matrix(6.123234e-17 -1 1 6.123234e-17 90.4001 787.2745)" class="st0" width="8.63" height="8.63"/>
	
		<rect x="450.58" y="344.12" transform="matrix(6.123234e-17 -1 1 6.123234e-17 106.4578 803.3322)" class="st2" width="8.63" height="8.63"/>
	
		<rect x="466.64" y="344.12" transform="matrix(6.123234e-17 -1 1 6.123234e-17 122.5155 819.39)" class="st2" width="8.63" height="8.63"/>
	
		<rect x="370.29" y="361.02" transform="matrix(6.123234e-17 -1 1 6.123234e-17 9.2683 739.9446)" class="st2" width="8.63" height="8.63"/>
	
		<rect x="386.35" y="361.02" transform="matrix(6.123234e-17 -1 1 6.123234e-17 25.326 756.0024)" class="st2" width="8.63" height="8.63"/>
	
		<rect x="402.41" y="361.02" transform="matrix(6.123234e-17 -1 1 6.123234e-17 41.3837 772.0601)" class="st0" width="8.63" height="8.63"/>
	
		<rect x="418.47" y="361.02" transform="matrix(6.123234e-17 -1 1 6.123234e-17 57.4414 788.1177)" class="st2" width="8.63" height="8.63"/>
	
		<rect x="434.52" y="361.02" transform="matrix(6.123234e-17 -1 1 6.123234e-17 73.4991 804.1755)" class="st2" width="8.63" height="8.63"/>
	
		<rect x="450.58" y="361.02" transform="matrix(6.123234e-17 -1 1 6.123234e-17 89.5568 820.2332)" class="st2" width="8.63" height="8.63"/>
	
		<rect x="466.64" y="361.02" transform="matrix(6.123234e-17 -1 1 6.123234e-17 105.6145 836.2909)" class="st2" width="8.63" height="8.63"/>
</g>
<g>
	
		<rect x="315.77" y="219.81" transform="matrix(-1 -1.224647e-16 1.224647e-16 -1 717.1624 642.1736)" class="st1" width="85.63" height="202.55"/>
	<rect x="322" y="223.72" class="st3" width="73.16" height="2.25"/>
	
		<rect x="383.35" y="232.04" transform="matrix(-1 -1.224647e-16 1.224647e-16 -1 774.9589 482.2165)" class="st2" width="8.26" height="18.13"/>
	
		<rect x="368.9" y="232.04" transform="matrix(-1 -1.224647e-16 1.224647e-16 -1 746.0607 482.2165)" class="st3" width="8.26" height="18.13"/>
	
		<rect x="354.45" y="232.04" transform="matrix(-1 -1.224647e-16 1.224647e-16 -1 717.1624 482.2165)" class="st2" width="8.26" height="18.13"/>
	
		<rect x="340" y="232.04" transform="matrix(-1 -1.224647e-16 1.224647e-16 -1 688.2642 482.2165)" class="st0" width="8.26" height="18.13"/>
	
		<rect x="325.55" y="232.04" transform="matrix(-1 -1.224647e-16 1.224647e-16 -1 659.3658 482.2165)" class="st2" width="8.26" height="18.13"/>
	
		<rect x="383.35" y="255.22" transform="matrix(-1 -1.224647e-16 1.224647e-16 -1 774.9589 528.5632)" class="st2" width="8.26" height="18.13"/>
	
		<rect x="368.9" y="255.22" transform="matrix(-1 -1.224647e-16 1.224647e-16 -1 746.0607 528.5632)" class="st2" width="8.26" height="18.13"/>
	
		<rect x="354.45" y="255.22" transform="matrix(-1 -1.224647e-16 1.224647e-16 -1 717.1624 528.5632)" class="st2" width="8.26" height="18.13"/>
	
		<rect x="340" y="255.22" transform="matrix(-1 -1.224647e-16 1.224647e-16 -1 688.2642 528.5632)" class="st2" width="8.26" height="18.13"/>
	
		<rect x="325.55" y="255.22" transform="matrix(-1 -1.224647e-16 1.224647e-16 -1 659.3658 528.5632)" class="st0" width="8.26" height="18.13"/>
	
		<rect x="383.35" y="278.39" transform="matrix(-1 -1.224647e-16 1.224647e-16 -1 774.9589 574.9099)" class="st2" width="8.26" height="18.13"/>
	
		<rect x="368.9" y="278.39" transform="matrix(-1 -1.224647e-16 1.224647e-16 -1 746.0607 574.9099)" class="st0" width="8.26" height="18.13"/>
	
		<rect x="354.45" y="278.39" transform="matrix(-1 -1.224647e-16 1.224647e-16 -1 717.1624 574.9099)" class="st3" width="8.26" height="18.13"/>
	
		<rect x="340" y="278.39" transform="matrix(-1 -1.224647e-16 1.224647e-16 -1 688.2642 574.9099)" class="st3" width="8.26" height="18.13"/>
	
		<rect x="325.55" y="278.39" transform="matrix(-1 -1.224647e-16 1.224647e-16 -1 659.3658 574.9099)" class="st2" width="8.26" height="18.13"/>
	
		<rect x="383.35" y="301.56" transform="matrix(-1 -1.224647e-16 1.224647e-16 -1 774.9589 621.2566)" class="st3" width="8.26" height="18.13"/>
	
		<rect x="368.9" y="301.56" transform="matrix(-1 -1.224647e-16 1.224647e-16 -1 746.0607 621.2566)" class="st2" width="8.26" height="18.13"/>
	
		<rect x="354.45" y="301.56" transform="matrix(-1 -1.224647e-16 1.224647e-16 -1 717.1624 621.2566)" class="st2" width="8.26" height="18.13"/>
	
		<rect x="340" y="301.56" transform="matrix(-1 -1.224647e-16 1.224647e-16 -1 688.2642 621.2566)" class="st2" width="8.26" height="18.13"/>
	
		<rect x="325.55" y="301.56" transform="matrix(-1 -1.224647e-16 1.224647e-16 -1 659.3658 621.2566)" class="st0" width="8.26" height="18.13"/>
	
		<rect x="383.35" y="324.74" transform="matrix(-1 -1.224647e-16 1.224647e-16 -1 774.9589 667.6033)" class="st0" width="8.26" height="18.13"/>
	
		<rect x="368.9" y="324.74" transform="matrix(-1 -1.224647e-16 1.224647e-16 -1 746.0607 667.6033)" class="st2" width="8.26" height="18.13"/>
	
		<rect x="354.45" y="324.74" transform="matrix(-1 -1.224647e-16 1.224647e-16 -1 717.1624 667.6033)" class="st2" width="8.26" height="18.13"/>
	
		<rect x="340" y="324.74" transform="matrix(-1 -1.224647e-16 1.224647e-16 -1 688.2642 667.6033)" class="st3" width="8.26" height="18.13"/>
	
		<rect x="325.55" y="324.74" transform="matrix(-1 -1.224647e-16 1.224647e-16 -1 659.3658 667.6033)" class="st2" width="8.26" height="18.13"/>
	
		<rect x="383.35" y="347.91" transform="matrix(-1 -1.224647e-16 1.224647e-16 -1 774.9589 713.95)" class="st0" width="8.26" height="18.13"/>
	
		<rect x="368.9" y="347.91" transform="matrix(-1 -1.224647e-16 1.224647e-16 -1 746.0607 713.95)" class="st3" width="8.26" height="18.13"/>
	
		<rect x="354.45" y="347.91" transform="matrix(-1 -1.224647e-16 1.224647e-16 -1 717.1624 713.95)" class="st2" width="8.26" height="18.13"/>
	
		<rect x="340" y="347.91" transform="matrix(-1 -1.224647e-16 1.224647e-16 -1 688.2642 713.95)" class="st2" width="8.26" height="18.13"/>
	
		<rect x="325.55" y="347.91" transform="matrix(-1 -1.224647e-16 1.224647e-16 -1 659.3658 713.95)" class="st3" width="8.26" height="18.13"/>
	
		<rect x="383.35" y="371.08" transform="matrix(-1 -1.224647e-16 1.224647e-16 -1 774.9589 760.2966)" class="st2" width="8.26" height="18.13"/>
	
		<rect x="368.9" y="371.08" transform="matrix(-1 -1.224647e-16 1.224647e-16 -1 746.0607 760.2966)" class="st0" width="8.26" height="18.13"/>
	
		<rect x="354.45" y="371.08" transform="matrix(-1 -1.224647e-16 1.224647e-16 -1 717.1624 760.2966)" class="st3" width="8.26" height="18.13"/>
	
		<rect x="340" y="371.08" transform="matrix(-1 -1.224647e-16 1.224647e-16 -1 688.2642 760.2966)" class="st3" width="8.26" height="18.13"/>
	
		<rect x="325.55" y="371.08" transform="matrix(-1 -1.224647e-16 1.224647e-16 -1 659.3658 760.2966)" class="st2" width="8.26" height="18.13"/>
</g>
<g>
	
		<rect x="472.19" y="289.1" transform="matrix(-1 -1.224647e-16 1.224647e-16 -1 1024.9517 711.4605)" class="st1" width="80.58" height="133.26"/>
	<rect x="478.05" y="291.67" class="st3" width="68.84" height="1.48"/>
	
		<rect x="535.78" y="297.15" transform="matrix(-1 -1.224647e-16 1.224647e-16 -1 1079.3378 606.2208)" class="st2" width="7.77" height="11.93"/>
	
		<rect x="522.19" y="297.15" transform="matrix(-1 -1.224647e-16 1.224647e-16 -1 1052.1448 606.2208)" class="st3" width="7.77" height="11.93"/>
	
		<rect x="508.59" y="297.15" transform="matrix(-1 -1.224647e-16 1.224647e-16 -1 1024.9517 606.2208)" class="st2" width="7.77" height="11.93"/>
	
		<rect x="494.99" y="297.15" transform="matrix(-1 -1.224647e-16 1.224647e-16 -1 997.7587 606.2208)" class="st0" width="7.77" height="11.93"/>
	
		<rect x="481.4" y="297.15" transform="matrix(-1 -1.224647e-16 1.224647e-16 -1 970.5656 606.2208)" class="st2" width="7.77" height="11.93"/>
	
		<rect x="535.78" y="312.39" transform="matrix(-1 -1.224647e-16 1.224647e-16 -1 1079.3378 636.7134)" class="st2" width="7.77" height="11.93"/>
	
		<rect x="522.19" y="312.39" transform="matrix(-1 -1.224647e-16 1.224647e-16 -1 1052.1448 636.7134)" class="st2" width="7.77" height="11.93"/>
	
		<rect x="508.59" y="312.39" transform="matrix(-1 -1.224647e-16 1.224647e-16 -1 1024.9517 636.7134)" class="st2" width="7.77" height="11.93"/>
	
		<rect x="494.99" y="312.39" transform="matrix(-1 -1.224647e-16 1.224647e-16 -1 997.7587 636.7134)" class="st2" width="7.77" height="11.93"/>
	
		<rect x="481.4" y="312.39" transform="matrix(-1 -1.224647e-16 1.224647e-16 -1 970.5656 636.7134)" class="st0" width="7.77" height="11.93"/>
	
		<rect x="535.78" y="327.64" transform="matrix(-1 -1.224647e-16 1.224647e-16 -1 1079.3378 667.2061)" class="st2" width="7.77" height="11.93"/>
	
		<rect x="522.19" y="327.64" transform="matrix(-1 -1.224647e-16 1.224647e-16 -1 1052.1448 667.2061)" class="st0" width="7.77" height="11.93"/>
	
		<rect x="508.59" y="327.64" transform="matrix(-1 -1.224647e-16 1.224647e-16 -1 1024.9517 667.2061)" class="st3" width="7.77" height="11.93"/>
	
		<rect x="494.99" y="327.64" transform="matrix(-1 -1.224647e-16 1.224647e-16 -1 997.7587 667.2061)" class="st3" width="7.77" height="11.93"/>
	
		<rect x="481.4" y="327.64" transform="matrix(-1 -1.224647e-16 1.224647e-16 -1 970.5656 667.2061)" class="st2" width="7.77" height="11.93"/>
	
		<rect x="535.78" y="342.89" transform="matrix(-1 -1.224647e-16 1.224647e-16 -1 1079.3378 697.6987)" class="st3" width="7.77" height="11.93"/>
	
		<rect x="522.19" y="342.89" transform="matrix(-1 -1.224647e-16 1.224647e-16 -1 1052.1448 697.6987)" class="st2" width="7.77" height="11.93"/>
	
		<rect x="508.59" y="342.89" transform="matrix(-1 -1.224647e-16 1.224647e-16 -1 1024.9517 697.6987)" class="st2" width="7.77" height="11.93"/>
	
		<rect x="494.99" y="342.89" transform="matrix(-1 -1.224647e-16 1.224647e-16 -1 997.7587 697.6987)" class="st2" width="7.77" height="11.93"/>
	
		<rect x="481.4" y="342.89" transform="matrix(-1 -1.224647e-16 1.224647e-16 -1 970.5656 697.6987)" class="st0" width="7.77" height="11.93"/>
	
		<rect x="535.78" y="358.13" transform="matrix(-1 -1.224647e-16 1.224647e-16 -1 1079.3378 728.1913)" class="st0" width="7.77" height="11.93"/>
	
		<rect x="522.19" y="358.13" transform="matrix(-1 -1.224647e-16 1.224647e-16 -1 1052.1448 728.1913)" class="st2" width="7.77" height="11.93"/>
	
		<rect x="508.59" y="358.13" transform="matrix(-1 -1.224647e-16 1.224647e-16 -1 1024.9517 728.1913)" class="st2" width="7.77" height="11.93"/>
	
		<rect x="494.99" y="358.13" transform="matrix(-1 -1.224647e-16 1.224647e-16 -1 997.7587 728.1913)" class="st3" width="7.77" height="11.93"/>
	
		<rect x="481.4" y="358.13" transform="matrix(-1 -1.224647e-16 1.224647e-16 -1 970.5656 728.1913)" class="st2" width="7.77" height="11.93"/>
	
		<rect x="535.78" y="373.38" transform="matrix(-1 -1.224647e-16 1.224647e-16 -1 1079.3378 758.684)" class="st0" width="7.77" height="11.93"/>
	
		<rect x="522.19" y="373.38" transform="matrix(-1 -1.224647e-16 1.224647e-16 -1 1052.1448 758.684)" class="st3" width="7.77" height="11.93"/>
	
		<rect x="508.59" y="373.38" transform="matrix(-1 -1.224647e-16 1.224647e-16 -1 1024.9517 758.684)" class="st2" width="7.77" height="11.93"/>
	
		<rect x="494.99" y="373.38" transform="matrix(-1 -1.224647e-16 1.224647e-16 -1 997.7587 758.684)" class="st2" width="7.77" height="11.93"/>
	
		<rect x="481.4" y="373.38" transform="matrix(-1 -1.224647e-16 1.224647e-16 -1 970.5656 758.684)" class="st3" width="7.77" height="11.93"/>
	
		<rect x="535.78" y="388.62" transform="matrix(-1 -1.224647e-16 1.224647e-16 -1 1079.3378 789.1766)" class="st2" width="7.77" height="11.93"/>
	
		<rect x="522.19" y="388.62" transform="matrix(-1 -1.224647e-16 1.224647e-16 -1 1052.1448 789.1766)" class="st0" width="7.77" height="11.93"/>
	
		<rect x="508.59" y="388.62" transform="matrix(-1 -1.224647e-16 1.224647e-16 -1 1024.9517 789.1766)" class="st3" width="7.77" height="11.93"/>
	
		<rect x="494.99" y="388.62" transform="matrix(-1 -1.224647e-16 1.224647e-16 -1 997.7587 789.1766)" class="st3" width="7.77" height="11.93"/>
	
		<rect x="481.4" y="388.62" transform="matrix(-1 -1.224647e-16 1.224647e-16 -1 970.5656 789.1766)" class="st2" width="7.77" height="11.93"/>
</g>
<g>
	
		<rect x="289.37" y="228.73" transform="matrix(-1.836970e-16 1 -1 -1.836970e-16 534.7569 -53.7008)" class="st5" width="9.72" height="23.59"/>
	
		<rect x="214.17" y="241.11" transform="matrix(-1 -1.224647e-16 1.224647e-16 -1 530.9479 663.469)" class="st5" width="102.6" height="181.25"/>
	
		<rect x="222.81" y="247.07" transform="matrix(-1 -1.224647e-16 1.224647e-16 -1 447.4017 663.469)" class="st6" width="1.78" height="169.33"/>
	
		<rect x="233.54" y="254.18" transform="matrix(-1 -1.224647e-16 1.224647e-16 -1 541.1088 516.5165)" class="st1" width="74.03" height="8.15"/>
	
		<rect x="233.54" y="269.03" transform="matrix(-1 -1.224647e-16 1.224647e-16 -1 541.1088 546.2097)" class="st3" width="74.03" height="8.15"/>
	
		<rect x="233.54" y="283.88" transform="matrix(-1 -1.224647e-16 1.224647e-16 -1 541.1088 575.9028)" class="st7" width="74.03" height="8.15"/>
	
		<rect x="233.54" y="298.72" transform="matrix(-1 -1.224647e-16 1.224647e-16 -1 541.1088 605.5958)" class="st8" width="74.03" height="8.15"/>
	
		<rect x="233.54" y="313.57" transform="matrix(-1 -1.224647e-16 1.224647e-16 -1 541.1088 635.2889)" class="st2" width="74.03" height="8.15"/>
	
		<rect x="233.54" y="328.42" transform="matrix(-1 -1.224647e-16 1.224647e-16 -1 541.1088 664.9821)" class="st1" width="74.03" height="8.15"/>
	
		<rect x="233.54" y="343.26" transform="matrix(-1 -1.224647e-16 1.224647e-16 -1 541.1088 694.6752)" class="st3" width="74.03" height="8.15"/>
</g>
<g>
	
		<rect x="476.19" y="257.61" transform="matrix(-1.836970e-16 1 -1 -1.836970e-16 759.8254 -207.7448)" class="st7" width="15.18" height="36.86"/>
	
		<rect x="478.73" y="256.72" transform="matrix(-1.836970e-16 1 -1 -1.836970e-16 752.7729 -214.7972)" class="st7" width="10.11" height="24.54"/>
	
		<rect x="459.21" y="272.62" transform="matrix(-1 -1.224647e-16 1.224647e-16 -1 967.5701 694.976)" class="st7" width="49.15" height="149.75"/>
	
		<rect x="459.21" y="279.35" transform="matrix(-1 -1.224647e-16 1.224647e-16 -1 967.5701 561.3973)" class="st7" width="49.15" height="2.69"/>
	
		<rect x="482.86" y="257.47" transform="matrix(6.123234e-17 -1 1 6.123234e-17 201.7421 765.828)" class="st8" width="1.85" height="49.15"/>
	
		<rect x="482.86" y="261.18" transform="matrix(6.123234e-17 -1 1 6.123234e-17 198.0303 769.5399)" class="st8" width="1.85" height="49.15"/>
	<path class="st8" d="M464.55,309.54h9.49v-10.52c0-2.25-1.83-4.08-4.08-4.08h-1.33c-2.25,0-4.08,1.83-4.08,4.08V309.54z"/>
	<path class="st2" d="M479.64,309.54h9.49v-9.85c0-2.62-2.12-4.74-4.74-4.74l0,0c-2.62,0-4.74,2.12-4.74,4.74V309.54z"/>
	<path class="st2" d="M464.55,330.37h9.49v-10.52c0-2.25-1.83-4.08-4.08-4.08h-1.33c-2.25,0-4.08,1.83-4.08,4.08V330.37z"/>
	<path class="st0" d="M479.64,330.37h9.49v-9.85c0-2.62-2.12-4.74-4.74-4.74l0,0c-2.62,0-4.74,2.12-4.74,4.74V330.37z"/>
	<path class="st2" d="M464.55,351.21h9.49V340.7c0-2.25-1.83-4.08-4.08-4.08h-1.33c-2.25,0-4.08,1.83-4.08,4.08V351.21z"/>
	<path class="st8" d="M479.64,351.21h9.49v-9.85c0-2.62-2.12-4.74-4.74-4.74l0,0c-2.62,0-4.74,2.12-4.74,4.74V351.21z"/>
	<path class="st0" d="M464.55,372.05h9.49v-10.52c0-2.25-1.83-4.08-4.08-4.08h-1.33c-2.25,0-4.08,1.83-4.08,4.08V372.05z"/>
	<path class="st2" d="M479.64,372.05h9.49v-9.85c0-2.62-2.12-4.74-4.74-4.74l0,0c-2.62,0-4.74,2.12-4.74,4.74V372.05z"/>
	<path class="st2" d="M464.55,392.89h9.49v-10.52c0-2.25-1.83-4.08-4.08-4.08h-1.33c-2.25,0-4.08,1.83-4.08,4.08V392.89z"/>
	<path class="st0" d="M479.64,392.89h9.49v-9.85c0-2.62-2.12-4.74-4.74-4.74l0,0c-2.62,0-4.74,2.12-4.74,4.74V392.89z"/>
</g>
<g>
	<circle class="st4" cx="544.69" cy="380.45" r="26.97"/>
	<rect x="544.02" y="384.95" class="st2" width="1.38" height="37.41"/>
	
		<rect x="540.77" y="394.6" transform="matrix(-0.7071 0.7071 -0.7071 -0.7071 1206.5367 298.4237)" class="st2" width="1.38" height="8.98"/>
	
		<rect x="547.23" y="402.58" transform="matrix(-0.7071 -0.7071 0.7071 -0.7071 647.5261 1082.3492)" class="st2" width="1.38" height="8.98"/>
	
		<rect x="547.23" y="388.14" transform="matrix(-0.7071 -0.7071 0.7071 -0.7071 657.7338 1057.7056)" class="st2" width="1.38" height="8.98"/>
</g>
<g>
	<path class="st7" d="M12.72,413.31c1.66,0,3.21,0.45,4.55,1.23c2.42-3.33,6.35-5.5,10.78-5.5c7.36,0,13.32,5.96,13.32,13.32H3.67
		C3.67,417.36,7.72,413.31,12.72,413.31z"/>
</g>
<g>
	<path class="st1" d="M191.45,411.59c1.78,0,3.47,0.44,4.95,1.2c3.11-4.73,8.47-7.86,14.56-7.86c5.58,0,10.55,2.63,13.73,6.71
		c0.37-0.04,0.74-0.06,1.12-0.06c5.95,0,10.77,4.82,10.77,10.77h-55.9C180.68,416.41,185.5,411.59,191.45,411.59z"/>
</g>
<g>
	<polygon class="st7" points="387.38,359.69 410.99,422.36 363.78,422.36 	"/>
	
		<rect x="386.69" y="384.95" transform="matrix(-1 -1.224647e-16 1.224647e-16 -1 774.7609 807.3091)" class="st2" width="1.38" height="37.41"/>
	
		<rect x="389.94" y="387.78" transform="matrix(0.7071 -0.7071 0.7071 0.7071 -162.963 391.1079)" class="st2" width="1.38" height="8.98"/>
	
		<rect x="389.94" y="403.73" transform="matrix(0.7071 -0.7071 0.7071 0.7071 -174.2399 395.7867)" class="st2" width="1.38" height="8.98"/>
	
		<rect x="383.48" y="395.75" transform="matrix(0.7071 0.7071 -0.7071 0.7071 395.533 -154.4179)" class="st2" width="1.38" height="8.98"/>
	
		<rect x="383.48" y="410.19" transform="matrix(0.7071 0.7071 -0.7071 0.7071 405.7407 -150.1897)" class="st2" width="1.38" height="8.98"/>
</g>
<g>
	
		<ellipse transform="matrix(0.9863 -0.1647 0.1647 0.9863 -60.0114 55.2853)" class="st9" cx="303.37" cy="389.52" rx="21.14" ry="21.14"/>
	<rect x="302.84" y="393.04" class="st2" width="1.08" height="29.32"/>
	
		<rect x="300.3" y="400.61" transform="matrix(-0.7071 0.7071 -0.7071 -0.7071 799.3215 477.1621)" class="st2" width="1.08" height="7.04"/>
	
		<rect x="305.36" y="406.86" transform="matrix(-0.7071 -0.7071 0.7071 -0.7071 232.0189 916.8582)" class="st2" width="1.08" height="7.04"/>
	
		<rect x="305.36" y="395.54" transform="matrix(-0.7071 -0.7071 0.7071 -0.7071 240.0279 897.5458)" class="st2" width="1.08" height="7.04"/>
</g>
<g>
	
		<ellipse transform="matrix(0.9871 -0.1602 0.1602 0.9871 -58.8406 49.105)" class="st9" cx="275.16" cy="389.52" rx="21.14" ry="21.14"/>
	<rect x="274.63" y="393.04" class="st2" width="1.08" height="29.32"/>
	
		<rect x="272.08" y="400.61" transform="matrix(-0.7071 0.7071 -0.7071 -0.7071 751.1602 497.1111)" class="st2" width="1.08" height="7.04"/>
	
		<rect x="277.15" y="406.86" transform="matrix(-0.7071 -0.7071 0.7071 -0.7071 183.858 896.9088)" class="st2" width="1.08" height="7.04"/>
	
		<rect x="277.15" y="395.54" transform="matrix(-0.7071 -0.7071 0.7071 -0.7071 191.8666 877.5967)" class="st2" width="1.08" height="7.04"/>
</g>
<path class="st4" d="M393.87,422.21c0-8.32,6.75-15.07,15.07-15.07c5.02,0,9.46,2.45,12.2,6.22c1.51-0.88,3.27-1.39,5.15-1.39
	c5.65,0,10.24,4.58,10.24,10.24l0,0H393.87L393.87,422.21z"/>
<g>
	<path class="st2" d="M304.87,414.45c1.31,0,2.55,0.32,3.63,0.89c2.29-3.48,6.22-5.77,10.69-5.77c4.1,0,7.75,1.93,10.09,4.93
		c0.27-0.03,0.54-0.04,0.82-0.04c4.37,0,7.91,3.54,7.91,7.91h-41.06C296.96,417.99,300.5,414.45,304.87,414.45z"/>
</g>
<g>
	<path class="st2" d="M578.62,417.5c0.81,0,1.57,0.2,2.23,0.54c1.41-2.14,3.83-3.55,6.58-3.55c2.52,0,4.76,1.19,6.2,3.03
		c0.17-0.02,0.34-0.03,0.51-0.03c2.69,0,4.86,2.18,4.86,4.86h-25.25C573.75,419.67,575.93,417.5,578.62,417.5z"/>
</g>
<g>
	<polygon class="st9" points="514.47,359.69 538.08,422.36 490.87,422.36 	"/>
	
		<rect x="513.78" y="384.95" transform="matrix(-1 -1.224647e-16 1.224647e-16 -1 1028.9487 807.3091)" class="st3" width="1.38" height="37.41"/>
	
		<rect x="517.03" y="387.78" transform="matrix(0.7071 -0.7071 0.7071 0.7071 -125.7381 480.9769)" class="st3" width="1.38" height="8.98"/>
	
		<rect x="517.03" y="403.73" transform="matrix(0.7071 -0.7071 0.7071 0.7071 -137.0137 485.6569)" class="st3" width="1.38" height="8.98"/>
	
		<rect x="510.57" y="395.75" transform="matrix(0.7071 0.7071 -0.7071 0.7071 432.7579 -244.2869)" class="st3" width="1.38" height="8.98"/>
	
		<rect x="510.57" y="410.19" transform="matrix(0.7071 0.7071 -0.7071 0.7071 442.9657 -240.0587)" class="st3" width="1.38" height="8.98"/>
</g>
</svg>
