<?xml version="1.0" encoding="utf-8"?>
<!-- Generator: Adobe Illustrator 25.0.1, SVG Export Plug-In . SVG Version: 6.00 Build 0)  -->
<svg version="1.1" xmlns="http://www.w3.org/2000/svg" xmlns:xlink="http://www.w3.org/1999/xlink" x="0px" y="0px"
	 viewBox="0 0 800 800" style="enable-background:new 0 0 800 800;" xml:space="preserve">
<style type="text/css">
	.st0{fill:none;}
	.st1{fill:none;stroke:#80CCCE;stroke-width:0.5;stroke-linejoin:round;}
	.st2{fill:#AFDFE0;}
	.st3{fill:url(#SVGID_1_);}
	.st4{fill:#FFFDEE;}
	.st5{fill:#E73227;}
	.st6{display:none;}
	.st7{display:inline;fill:#FFFDEE;}
	.st8{font-family:'BebasNeueBold';}
	.st9{font-size:60.4812px;}
	.st10{font-family:'BebasNeueLight';}
	.st11{display:inline;}
</style>
<pattern  width="72" height="72" patternUnits="userSpaceOnUse" id="Líneas_diagonales" viewBox="79.66 -148.69 72 72" style="overflow:visible;">
	<g>
		<rect x="79.66" y="-148.69" class="st0" width="72" height="72"/>
		<g>
			<line class="st1" x1="144.18" y1="-66.18" x2="162.18" y2="-84.18"/>
			<line class="st1" x1="144.18" y1="-60.18" x2="168.18" y2="-84.18"/>
			<line class="st1" x1="144.18" y1="-54.18" x2="174.18" y2="-84.18"/>
			<line class="st1" x1="144.18" y1="-48.18" x2="180.18" y2="-84.18"/>
			<line class="st1" x1="144.18" y1="-42.18" x2="186.18" y2="-84.18"/>
			<line class="st1" x1="144.18" y1="-36.18" x2="192.18" y2="-84.18"/>
			<line class="st1" x1="144.18" y1="-30.18" x2="198.18" y2="-84.18"/>
			<line class="st1" x1="144.18" y1="-24.18" x2="204.18" y2="-84.18"/>
			<line class="st1" x1="144.18" y1="-18.18" x2="210.18" y2="-84.18"/>
			<line class="st1" x1="144.18" y1="-12.18" x2="216.18" y2="-84.18"/>
			<line class="st1" x1="144.18" y1="-6.18" x2="222.18" y2="-84.18"/>
			<line class="st1" x1="144.18" y1="-0.18" x2="228.18" y2="-84.18"/>
			<line class="st1" x1="150.18" y1="-0.18" x2="228.18" y2="-78.18"/>
		</g>
		<g>
			<line class="st1" x1="72.18" y1="-66.18" x2="90.18" y2="-84.18"/>
			<line class="st1" x1="72.18" y1="-60.18" x2="96.18" y2="-84.18"/>
			<line class="st1" x1="72.18" y1="-54.18" x2="102.18" y2="-84.18"/>
			<line class="st1" x1="72.18" y1="-48.18" x2="108.18" y2="-84.18"/>
			<line class="st1" x1="72.18" y1="-42.18" x2="114.18" y2="-84.18"/>
			<line class="st1" x1="72.18" y1="-36.18" x2="120.18" y2="-84.18"/>
			<line class="st1" x1="72.18" y1="-30.18" x2="126.18" y2="-84.18"/>
			<line class="st1" x1="72.18" y1="-24.18" x2="132.18" y2="-84.18"/>
			<line class="st1" x1="72.18" y1="-18.18" x2="138.18" y2="-84.18"/>
			<line class="st1" x1="72.18" y1="-12.18" x2="144.18" y2="-84.18"/>
			<line class="st1" x1="72.18" y1="-6.18" x2="150.18" y2="-84.18"/>
			<line class="st1" x1="72.18" y1="-0.18" x2="156.18" y2="-84.18"/>
			<line class="st1" x1="78.18" y1="-0.18" x2="156.18" y2="-78.18"/>
		</g>
		<g>
			<line class="st1" x1="0.18" y1="-0.18" x2="84.18" y2="-84.18"/>
			<line class="st1" x1="6.18" y1="-0.18" x2="84.18" y2="-78.18"/>
		</g>
		<g>
			<line class="st1" x1="144.18" y1="-138.18" x2="162.18" y2="-156.18"/>
			<line class="st1" x1="144.18" y1="-132.18" x2="168.18" y2="-156.18"/>
			<line class="st1" x1="144.18" y1="-126.18" x2="174.18" y2="-156.18"/>
			<line class="st1" x1="144.18" y1="-120.18" x2="180.18" y2="-156.18"/>
			<line class="st1" x1="144.18" y1="-114.18" x2="186.18" y2="-156.18"/>
			<line class="st1" x1="144.18" y1="-108.18" x2="192.18" y2="-156.18"/>
			<line class="st1" x1="144.18" y1="-102.18" x2="198.18" y2="-156.18"/>
			<line class="st1" x1="144.18" y1="-96.18" x2="204.18" y2="-156.18"/>
			<line class="st1" x1="144.18" y1="-90.18" x2="210.18" y2="-156.18"/>
			<line class="st1" x1="144.18" y1="-84.18" x2="216.18" y2="-156.18"/>
			<line class="st1" x1="144.18" y1="-78.18" x2="222.18" y2="-156.18"/>
			<line class="st1" x1="144.18" y1="-72.18" x2="228.18" y2="-156.18"/>
			<line class="st1" x1="150.18" y1="-72.18" x2="228.18" y2="-150.18"/>
		</g>
		<g>
			<line class="st1" x1="72.18" y1="-138.18" x2="90.18" y2="-156.18"/>
			<line class="st1" x1="72.18" y1="-132.18" x2="96.18" y2="-156.18"/>
			<line class="st1" x1="72.18" y1="-126.18" x2="102.18" y2="-156.18"/>
			<line class="st1" x1="72.18" y1="-120.18" x2="108.18" y2="-156.18"/>
			<line class="st1" x1="72.18" y1="-114.18" x2="114.18" y2="-156.18"/>
			<line class="st1" x1="72.18" y1="-108.18" x2="120.18" y2="-156.18"/>
			<line class="st1" x1="72.18" y1="-102.18" x2="126.18" y2="-156.18"/>
			<line class="st1" x1="72.18" y1="-96.18" x2="132.18" y2="-156.18"/>
			<line class="st1" x1="72.18" y1="-90.18" x2="138.18" y2="-156.18"/>
			<line class="st1" x1="72.18" y1="-84.18" x2="144.18" y2="-156.18"/>
			<line class="st1" x1="72.18" y1="-78.18" x2="150.18" y2="-156.18"/>
			<line class="st1" x1="72.18" y1="-72.18" x2="156.18" y2="-156.18"/>
			<line class="st1" x1="78.18" y1="-72.18" x2="156.18" y2="-150.18"/>
			<line class="st1" x1="84.18" y1="-72.18" x2="156.18" y2="-144.18"/>
			<line class="st1" x1="90.18" y1="-72.18" x2="156.18" y2="-138.18"/>
			<line class="st1" x1="96.18" y1="-72.18" x2="156.18" y2="-132.18"/>
			<line class="st1" x1="102.18" y1="-72.18" x2="156.18" y2="-126.18"/>
			<line class="st1" x1="108.18" y1="-72.18" x2="156.18" y2="-120.18"/>
			<line class="st1" x1="114.18" y1="-72.18" x2="156.18" y2="-114.18"/>
			<line class="st1" x1="120.18" y1="-72.18" x2="156.18" y2="-108.18"/>
			<line class="st1" x1="126.18" y1="-72.18" x2="156.18" y2="-102.18"/>
			<line class="st1" x1="132.18" y1="-72.18" x2="156.18" y2="-96.18"/>
			<line class="st1" x1="138.18" y1="-72.18" x2="156.18" y2="-90.18"/>
			<line class="st1" x1="144.18" y1="-72.18" x2="156.18" y2="-84.18"/>
		</g>
		<g>
			<line class="st1" x1="0.18" y1="-72.18" x2="84.18" y2="-156.18"/>
			<line class="st1" x1="6.18" y1="-72.18" x2="84.18" y2="-150.18"/>
			<line class="st1" x1="12.18" y1="-72.18" x2="84.18" y2="-144.18"/>
			<line class="st1" x1="18.18" y1="-72.18" x2="84.18" y2="-138.18"/>
			<line class="st1" x1="24.18" y1="-72.18" x2="84.18" y2="-132.18"/>
			<line class="st1" x1="30.18" y1="-72.18" x2="84.18" y2="-126.18"/>
			<line class="st1" x1="36.18" y1="-72.18" x2="84.18" y2="-120.18"/>
			<line class="st1" x1="42.18" y1="-72.18" x2="84.18" y2="-114.18"/>
			<line class="st1" x1="48.18" y1="-72.18" x2="84.18" y2="-108.18"/>
			<line class="st1" x1="54.18" y1="-72.18" x2="84.18" y2="-102.18"/>
			<line class="st1" x1="60.18" y1="-72.18" x2="84.18" y2="-96.18"/>
			<line class="st1" x1="66.18" y1="-72.18" x2="84.18" y2="-90.18"/>
			<line class="st1" x1="72.18" y1="-72.18" x2="84.18" y2="-84.18"/>
		</g>
		<g>
			<line class="st1" x1="144.18" y1="-144.18" x2="228.18" y2="-228.18"/>
			<line class="st1" x1="150.18" y1="-144.18" x2="228.18" y2="-222.18"/>
		</g>
		<g>
			<line class="st1" x1="72.18" y1="-144.18" x2="156.18" y2="-228.18"/>
			<line class="st1" x1="78.18" y1="-144.18" x2="156.18" y2="-222.18"/>
			<line class="st1" x1="84.18" y1="-144.18" x2="156.18" y2="-216.18"/>
			<line class="st1" x1="90.18" y1="-144.18" x2="156.18" y2="-210.18"/>
			<line class="st1" x1="96.18" y1="-144.18" x2="156.18" y2="-204.18"/>
			<line class="st1" x1="102.18" y1="-144.18" x2="156.18" y2="-198.18"/>
			<line class="st1" x1="108.18" y1="-144.18" x2="156.18" y2="-192.18"/>
			<line class="st1" x1="114.18" y1="-144.18" x2="156.18" y2="-186.18"/>
			<line class="st1" x1="120.18" y1="-144.18" x2="156.18" y2="-180.18"/>
			<line class="st1" x1="126.18" y1="-144.18" x2="156.18" y2="-174.18"/>
			<line class="st1" x1="132.18" y1="-144.18" x2="156.18" y2="-168.18"/>
			<line class="st1" x1="138.18" y1="-144.18" x2="156.18" y2="-162.18"/>
			<line class="st1" x1="144.18" y1="-144.18" x2="156.18" y2="-156.18"/>
		</g>
		<g>
			<line class="st1" x1="0.18" y1="-144.18" x2="84.18" y2="-228.18"/>
			<line class="st1" x1="6.18" y1="-144.18" x2="84.18" y2="-222.18"/>
			<line class="st1" x1="12.18" y1="-144.18" x2="84.18" y2="-216.18"/>
			<line class="st1" x1="18.18" y1="-144.18" x2="84.18" y2="-210.18"/>
			<line class="st1" x1="24.18" y1="-144.18" x2="84.18" y2="-204.18"/>
			<line class="st1" x1="30.18" y1="-144.18" x2="84.18" y2="-198.18"/>
			<line class="st1" x1="36.18" y1="-144.18" x2="84.18" y2="-192.18"/>
			<line class="st1" x1="42.18" y1="-144.18" x2="84.18" y2="-186.18"/>
			<line class="st1" x1="48.18" y1="-144.18" x2="84.18" y2="-180.18"/>
			<line class="st1" x1="54.18" y1="-144.18" x2="84.18" y2="-174.18"/>
			<line class="st1" x1="60.18" y1="-144.18" x2="84.18" y2="-168.18"/>
			<line class="st1" x1="66.18" y1="-144.18" x2="84.18" y2="-162.18"/>
			<line class="st1" x1="72.18" y1="-144.18" x2="84.18" y2="-156.18"/>
		</g>
	</g>
</pattern>
<g id="BACKGROUND">
	<g>
		<rect x="0" y="0" class="st2" width="800" height="800"/>
		<pattern  id="SVGID_1_" xlink:href="#L√≠neas_diagonales" patternTransform="matrix(1 0 0 1 503.9988 -3.440000e-04)">
		</pattern>
		<rect x="0" y="0" class="st3" width="800" height="800"/>
	</g>
</g>
<g id="OBJECTS">
	<g>
		<g>
			<path class="st4" d="M119.49,800c1.07-6.92,2.13-13.84,3.2-20.76c2.04-13.25,4.09-26.5,6.13-39.76
				c2.44-15.83,4.88-31.66,7.32-47.49c2.6-16.84,5.19-33.67,7.79-50.51c2.51-16.27,5.02-32.54,7.53-48.81
				c2.18-14.13,4.36-28.26,6.54-42.4c1.61-10.42,3.22-20.85,4.82-31.27c1.24-8.01,3.38-16.24,1.94-24.38
				c-1.43-8.08-7.94-13.57-10.82-21.15c-2.24-5.89-2.71-12.22-3.43-18.42c-0.73-6.27-2.1-11.88-4.53-17.7
				c-4.43-10.63-9.29-21.99-17.65-30.19c-6.09-5.97-12.84-12.25-17.03-19.78c-1.18-2.12-2.55-4.93-1.85-7.43
				c1.32-4.72,7.14-4.92,10.62-2.77c4.75,2.94,8.26,8.07,11.64,12.39c7.71,9.87,19.74,28.41,25.52,24.08
				c2.73-2.05,0.8-7.62,0.03-10.15c-1.49-4.92-3.55-9.85-6.05-14.33c-5.96-10.69-12.22-21.5-17.19-32.69
				c-2.12-4.77-9.6-20.88-1.83-24.23c7.91-3.41,15.18,9.59,18.2,14.81c2.35,4.06,4.63,8.33,6.38,12.7
				c2.57,6.42,5.93,12.58,8.71,18.97c2.69,6.18,5.13,12.47,7.31,18.85c0.34,1,0.76,2.09,1.7,2.56c3.75,1.87,1.35-10.16,1.07-11.53
				c-1.74-8.54-4.84-16.7-6.78-25.19c-2.49-10.86-4.67-22.01-6.09-33.05c-0.54-4.21-1.02-9.02,0.49-13.09
				c1.8-4.86,8.5-6.33,12.45-3.1c2.67,2.18,3.4,5.81,3.8,9.05c0.49,4,0.78,7.87,1.58,11.85c1.81,9.03,4.83,18.03,7.37,26.98
				c1.31,4.61,2.51,9.27,3.36,13.99c0.84,4.65,0.81,9.54,2.24,14.06c0.28,0.88,0.64,1.8,1.38,2.35c0.92,0.68,2.26,0.6,3.25,0.01
				c4.02-2.37,1.71-7.86,1.25-11.45c-0.88-6.87-0.64-13.68-0.71-20.58c-0.12-9.09-0.55-18.25-0.71-27.27
				c-0.1-5.57,1.08-13.27,7.91-13.91c6.41-0.6,8.98,6.12,9.89,11.32c1.26,7.29,0.19,15,0.76,22.44c0.61,7.96,0.79,15.95,1.34,23.89
				c0.52,7.6,3.17,15.06,3.95,22.67c0.84,8.27-0.29,16.48,5.43,23.42c1.89,2.3,4.48,4.18,7.43,4.55
				c8.25,1.04,15.83-6.98,20.03-13.15c4.3-6.31,9.37-12.15,15.79-16.36c3.72-2.44,7.9-4.83,12.38-5.41
				c4.05-0.53,9.41,1.11,10.69,5.47c1.6,5.46-4.86,11-8.48,14.09c-14.93,12.76-25.52,30.34-25.52,30.34s-16.13,34.43-23.6,44.07
				c-4.12,5.31-10.37,8.87-13.16,15.12c-4.24,9.47-3.57,22.26-4.83,32.58c-0.82,6.73-1.65,13.46-2.47,20.19
				c-2.06,16.79-4.12,33.57-6.18,50.36c-4.7,38.28-9.41,76.56-14.13,114.85c-3.3,26.76-6.59,53.52-9.89,80.28L119.49,800z"/>
			<path class="st5" d="M193.05,441.48c-2.82-8.44,4.44-20.64,13.08-21.69c1.91-0.23,3.94-0.02,5.55,1.01
				c7.79,4.98-0.89,25.8-3.08,32.01c-3.13,8.88-6.83,17.55-10.75,26.11c-0.57,1.25-1.11,2.53-1.88,3.64
				c-7.73-5.96-14.79-14.43-20.97-21.99c-5.63-6.89-21.6-25.29-13.27-34.49c1.19-1.31,2.83-2.13,4.52-2.68
				c4.38-1.42,9.29-1.13,13.47,0.8C186.29,427.22,190.84,434.84,193.05,441.48z"/>
		</g>
		<g>
			<path class="st4" d="M689.64,800c-0.07-1.01-0.14-2.02-0.2-3.04c-0.95-14.27-1.91-28.54-2.86-42.8
				c-0.7-10.52-1.41-21.05-2.11-31.57c-0.54-8.09-0.24-16.59-3.42-24.21c-3.16-7.57-10.71-11.51-15.17-18.28
				c-3.47-5.26-5.31-11.34-7.37-17.23c-2.08-5.96-4.64-11.14-8.28-16.29c-6.64-9.41-13.86-19.43-23.8-25.61
				c-7.24-4.5-15.2-9.15-20.93-15.59c-1.61-1.81-3.56-4.25-3.43-6.85c0.26-4.89,5.89-6.36,9.76-5.02c5.28,1.83,9.82,6.07,14.06,9.56
				c9.67,7.95,25.47,23.42,30.16,17.93c2.22-2.59-0.88-7.62-2.18-9.91c-2.53-4.47-5.61-8.83-9.03-12.66
				c-8.14-9.13-16.61-18.32-23.91-28.15c-3.11-4.2-13.92-18.28-7.07-23.25c6.97-5.05,16.9,6.05,20.99,10.49
				c3.18,3.45,6.34,7.12,9,11c3.91,5.71,8.53,10.99,12.63,16.61c3.97,5.44,7.73,11.05,11.24,16.8c0.55,0.9,1.19,1.88,2.22,2.13
				c4.07,1.01-0.9-10.21-1.47-11.49c-3.56-7.95-8.36-15.24-12.11-23.1c-4.79-10.05-9.36-20.46-13.15-30.93
				c-1.44-3.99-2.96-8.58-2.38-12.88c0.7-5.13,6.91-8.03,11.48-5.74c3.08,1.54,4.59,4.92,5.68,8c1.35,3.79,2.48,7.51,4.12,11.22
				c3.73,8.42,8.65,16.54,13.08,24.72c2.28,4.22,4.47,8.5,6.33,12.92c1.83,4.35,2.87,9.13,5.25,13.23c0.46,0.8,1.01,1.62,1.86,1.99
				c1.05,0.46,2.33,0.09,3.17-0.7c3.4-3.19-0.04-8.05-1.27-11.45c-2.36-6.52-3.6-13.21-5.18-19.92c-2.1-8.85-4.51-17.69-6.64-26.46
				c-1.31-5.41-1.84-13.18,4.69-15.3c6.13-1.98,10.1,4.02,12.12,8.89c2.82,6.84,3.46,14.6,5.64,21.73
				c2.33,7.64,4.25,15.39,6.52,23.03c2.16,7.3,6.38,14,8.8,21.26c2.63,7.89,3.31,16.15,10.41,21.68c2.35,1.83,5.28,3.1,8.25,2.82
				c8.28-0.79,13.93-10.27,16.68-17.2c2.82-7.09,6.49-13.9,11.85-19.41c3.09-3.19,6.66-6.44,10.9-7.98
				c3.84-1.4,9.42-0.97,11.62,3.01c2.76,4.98-2.35,11.8-5.2,15.6c-11.79,15.71-18.29,35.17-18.29,35.17s-8.24,37.12-13.42,48.15
				c-2.86,6.08-8.19,10.92-9.55,17.62c-2.07,10.16,1.37,22.5,2.39,32.85c0.67,6.75,1.33,13.49,1.99,20.24
				c1.65,16.83,3.3,33.66,4.95,50.49c0.13,1.29,0.25,2.57,0.38,3.86L689.64,800z"/>
			<path class="st5" d="M699.64,643.83c-1.27-8.81,8.05-19.52,16.74-19.01c1.92,0.11,3.88,0.68,5.28,1.99
				c6.78,6.29-5.48,25.22-8.74,30.95c-4.66,8.18-9.85,16.05-15.23,23.77c-0.79,1.13-1.54,2.29-2.49,3.25
				c-6.54-7.24-11.97-16.83-16.71-25.38c-4.31-7.78-16.74-28.74-6.9-36.31c1.4-1.08,3.17-1.59,4.92-1.83
				c4.56-0.62,9.34,0.54,13.11,3.19C695.53,628.59,698.65,636.9,699.64,643.83z"/>
		</g>
		<g>
			<path class="st4" d="M261.46,800c0.91-5.93,1.83-11.85,2.74-17.78c2.6-16.84,5.19-33.67,7.79-50.51
				c2.51-16.27,5.02-32.54,7.53-48.81c2.18-14.13,4.36-28.26,6.54-42.4c1.61-10.42,3.22-20.85,4.82-31.27
				c1.24-8.01,3.38-16.24,1.94-24.38c-1.43-8.08-7.94-13.57-10.82-21.15c-2.24-5.89-2.71-12.22-3.43-18.42
				c-0.73-6.27-2.1-11.88-4.53-17.7c-4.43-10.63-9.29-21.99-17.65-30.19c-6.09-5.97-12.84-12.25-17.03-19.78
				c-1.18-2.12-2.55-4.93-1.85-7.43c1.32-4.72,7.14-4.92,10.62-2.77c4.75,2.94,8.26,8.07,11.64,12.39
				c7.71,9.87,19.74,28.41,25.52,24.08c2.73-2.05,0.8-7.62,0.03-10.15c-1.49-4.92-3.55-9.85-6.05-14.33
				c-5.96-10.69-12.22-21.5-17.19-32.69c-2.12-4.77-9.6-20.88-1.83-24.23c7.91-3.41,15.18,9.59,18.2,14.81
				c2.35,4.06,4.63,8.33,6.38,12.7c2.57,6.42,5.93,12.58,8.71,18.97c2.69,6.18,5.13,12.47,7.31,18.85c0.34,1,0.76,2.09,1.7,2.56
				c3.75,1.87,1.35-10.16,1.07-11.53c-1.74-8.54-4.84-16.7-6.78-25.19c-2.49-10.86-4.67-22.01-6.09-33.05
				c-0.54-4.21-1.02-9.02,0.49-13.09c1.8-4.86,8.5-6.33,12.45-3.1c2.67,2.18,3.4,5.81,3.8,9.05c0.49,4,0.78,7.87,1.58,11.85
				c1.81,9.03,4.83,18.03,7.37,26.98c1.31,4.61,2.51,9.27,3.36,13.99c0.84,4.65,0.81,9.54,2.24,14.06c0.28,0.88,0.64,1.8,1.38,2.35
				c0.92,0.68,2.26,0.6,3.25,0.01c4.02-2.37,1.71-7.86,1.25-11.45c-0.88-6.87-0.64-13.68-0.71-20.58
				c-0.12-9.09-0.55-18.25-0.71-27.27c-0.1-5.57,1.08-13.27,7.91-13.91c6.41-0.6,8.98,6.12,9.89,11.32c1.26,7.29,0.19,15,0.76,22.44
				c0.61,7.96,0.79,15.95,1.34,23.89c0.52,7.6,3.17,15.06,3.95,22.67c0.84,8.27-0.29,16.48,5.43,23.42c1.89,2.3,4.48,4.18,7.43,4.55
				c8.25,1.04,15.83-6.98,20.03-13.15c4.3-6.31,9.37-12.15,15.79-16.36c3.72-2.44,7.9-4.83,12.38-5.41
				c4.05-0.53,9.41,1.11,10.69,5.47c1.6,5.46-4.86,11-8.48,14.09c-14.93,12.76-25.52,30.34-25.52,30.34s-16.13,34.43-23.6,44.07
				c-4.12,5.31-10.37,8.87-13.16,15.12c-4.24,9.47-3.57,22.26-4.83,32.58c-0.82,6.73-1.65,13.46-2.47,20.19
				c-2.06,16.79-4.12,33.57-6.18,50.36c-4.3,34.97-8.6,69.93-12.9,104.9L261.46,800z"/>
			<path class="st5" d="M321.11,531.7c-2.82-8.44,4.44-20.64,13.08-21.69c1.91-0.23,3.94-0.02,5.55,1.01
				c7.79,4.98-0.89,25.8-3.08,32.01c-3.13,8.88-6.83,17.55-10.75,26.11c-0.57,1.25-1.11,2.53-1.88,3.64
				c-7.73-5.96-14.79-14.43-20.97-21.99c-5.63-6.89-21.6-25.29-13.27-34.49c1.19-1.31,2.83-2.13,4.52-2.68
				c4.38-1.42,9.29-1.13,13.47,0.8C314.34,517.44,318.89,525.06,321.11,531.7z"/>
		</g>
		<g>
			<path class="st4" d="M555.86,800c-0.52-3.38-1.04-6.77-1.57-10.15c-1.4-9.1-2.81-18.21-4.21-27.31
				c-2.04-13.25-4.09-26.5-6.13-39.76c-2.44-15.83-4.88-31.66-7.32-47.49c-2.6-16.84-5.19-33.67-7.79-50.51
				c-2.51-16.27-5.02-32.54-7.53-48.81c-2.18-14.13-4.36-28.26-6.54-42.4c-1.61-10.42-3.22-20.85-4.82-31.27
				c-1.24-8.01-3.38-16.24-1.94-24.38c1.43-8.08,7.94-13.57,10.82-21.15c2.24-5.89,2.71-12.22,3.43-18.42
				c0.73-6.27,2.1-11.88,4.53-17.7c4.43-10.63,9.29-21.99,17.65-30.19c6.09-5.97,12.84-12.25,17.03-19.78
				c1.18-2.12,2.55-4.93,1.85-7.43c-1.32-4.72-7.14-4.92-10.62-2.77c-4.75,2.94-8.26,8.07-11.64,12.39
				c-7.71,9.87-19.74,28.41-25.52,24.08c-2.73-2.05-0.8-7.62-0.03-10.15c1.49-4.92,3.55-9.85,6.05-14.33
				c5.96-10.69,12.22-21.5,17.19-32.69c2.12-4.77,9.6-20.88,1.83-24.23c-7.91-3.41-15.18,9.59-18.2,14.81
				c-2.35,4.06-4.63,8.33-6.38,12.7c-2.57,6.42-5.93,12.58-8.71,18.97c-2.69,6.18-5.13,12.47-7.31,18.85c-0.34,1-0.76,2.09-1.7,2.56
				c-3.75,1.87-1.35-10.16-1.07-11.53c1.74-8.54,4.84-16.7,6.78-25.19c2.49-10.86,4.67-22.01,6.09-33.05
				c0.54-4.21,1.02-9.02-0.49-13.09c-1.8-4.86-8.5-6.33-12.45-3.1c-2.67,2.18-3.4,5.81-3.8,9.05c-0.49,4-0.78,7.87-1.58,11.85
				c-1.81,9.03-4.83,18.03-7.37,26.98c-1.31,4.61-2.51,9.27-3.36,13.99c-0.84,4.65-0.81,9.54-2.24,14.06
				c-0.28,0.88-0.64,1.8-1.38,2.35c-0.92,0.68-2.26,0.6-3.25,0.01c-4.02-2.37-1.71-7.86-1.25-11.45c0.88-6.87,0.64-13.68,0.71-20.58
				c0.12-9.09,0.55-18.25,0.71-27.27c0.1-5.57-1.08-13.27-7.91-13.91c-6.41-0.6-8.98,6.12-9.89,11.32c-1.26,7.29-0.19,15-0.76,22.44
				c-0.61,7.96-0.79,15.95-1.34,23.89c-0.52,7.6-3.17,15.06-3.95,22.67c-0.84,8.27,0.29,16.48-5.43,23.42
				c-1.89,2.3-4.48,4.18-7.43,4.55c-8.25,1.04-15.83-6.98-20.03-13.15c-4.3-6.31-9.37-12.15-15.79-16.36
				c-3.72-2.44-7.9-4.83-12.38-5.41c-4.05-0.53-9.41,1.11-10.69,5.47c-1.6,5.46,4.86,11,8.48,14.09
				c14.93,12.76,25.52,30.34,25.52,30.34s16.13,34.43,23.6,44.07c4.12,5.31,10.37,8.87,13.16,15.12c4.24,9.47,3.57,22.26,4.83,32.58
				c0.82,6.73,1.65,13.46,2.47,20.19c2.06,16.79,4.12,33.57,6.18,50.36c4.7,38.28,9.41,76.56,14.13,114.85
				c3.47,28.17,6.94,56.34,10.41,84.51c0.51,4.16,1.02,8.31,1.54,12.47H555.86z"/>
			<path class="st5" d="M479.72,424.77c2.82-8.44-4.44-20.64-13.08-21.69c-1.91-0.23-3.94-0.02-5.55,1.01
				c-7.79,4.98,0.89,25.8,3.08,32.01c3.13,8.88,6.83,17.55,10.75,26.11c0.57,1.25,1.11,2.53,1.88,3.64
				c7.73-5.96,14.79-14.43,20.97-21.99c5.63-6.89,21.6-25.29,13.27-34.49c-1.19-1.31-2.83-2.13-4.52-2.68
				c-4.38-1.42-9.29-1.13-13.47,0.8C486.49,410.51,481.94,418.13,479.72,424.77z"/>
		</g>
		<g>
			<path class="st4" d="M429.23,800c-0.22-11.02-0.45-22.03-0.67-33.05c-0.21-10.54-0.43-21.09-0.64-31.63
				c-0.16-8.1-1.2-16.55,1.3-24.42c2.49-7.82,9.66-12.4,13.52-19.53c3-5.54,4.31-11.76,5.84-17.81c1.56-6.12,3.65-11.5,6.83-16.94
				c5.8-9.95,12.12-20.56,21.49-27.58c6.82-5.11,14.35-10.44,19.5-17.35c1.45-1.94,3.18-4.55,2.82-7.12
				c-0.68-4.85-6.42-5.82-10.16-4.15c-5.1,2.28-9.26,6.9-13.18,10.74c-8.94,8.77-23.33,25.55-28.49,20.49
				c-2.43-2.39,0.22-7.66,1.31-10.06c2.13-4.68,4.82-9.29,7.89-13.4c7.32-9.8,14.96-19.69,21.37-30.12
				c2.74-4.45,12.28-19.42,5.02-23.77c-7.39-4.43-16.31,7.5-20,12.28c-2.87,3.72-5.7,7.64-8.01,11.74
				c-3.4,6.03-7.54,11.69-11.14,17.65c-3.49,5.77-6.74,11.68-9.74,17.72c-0.47,0.94-1.03,1.97-2.02,2.31
				c-3.96,1.36,0-10.25,0.46-11.57c2.85-8.23,7-15.91,10.05-24.07c3.9-10.43,7.55-21.2,10.41-31.95c1.09-4.1,2.2-8.81,1.25-13.04
				c-1.14-5.05-7.58-7.4-11.93-4.72c-2.93,1.81-4.14,5.3-4.96,8.46c-1.01,3.9-1.82,7.7-3.13,11.53
				c-2.99,8.71-7.18,17.23-10.88,25.77c-1.91,4.4-3.71,8.85-5.18,13.42c-1.45,4.49-2.07,9.35-4.08,13.64
				c-0.39,0.84-0.87,1.7-1.68,2.14c-1,0.55-2.32,0.29-3.22-0.42c-3.67-2.88-0.66-8.02,0.27-11.52c1.78-6.7,2.44-13.47,3.43-20.3
				c1.32-9,2.96-18.01,4.32-26.94c0.84-5.5,0.69-13.29-6-14.83c-6.28-1.44-9.72,4.88-11.3,9.91c-2.22,7.06-2.18,14.84-3.73,22.14
				c-1.66,7.81-2.9,15.71-4.49,23.51c-1.52,7.46-5.14,14.5-6.92,21.95c-1.93,8.09-1.89,16.37-8.48,22.5
				c-2.18,2.03-4.99,3.55-7.97,3.53c-8.32-0.06-14.77-9.02-18.11-15.68c-3.42-6.82-7.68-13.28-13.49-18.31
				c-3.36-2.91-7.2-5.83-11.56-7c-3.95-1.06-9.47-0.15-11.32,4.01c-2.31,5.2,3.36,11.55,6.54,15.09
				c13.11,14.63,21.28,33.45,21.28,33.45s11.43,36.27,17.56,46.8c3.38,5.81,9.1,10.17,11.05,16.72c2.95,9.94,0.59,22.54,0.48,32.93
				c-0.08,6.78-0.15,13.56-0.23,20.34c-0.13,12.18-0.26,24.35-0.39,36.53L429.23,800z"/>
			<path class="st5" d="M408.22,654.46c3.91-7.99-1.67-21.05-10.09-23.23c-1.86-0.48-3.9-0.54-5.64,0.27
				c-8.38,3.9-2.54,25.69-1.19,32.13c1.93,9.22,4.44,18.3,7.19,27.3c0.4,1.31,0.76,2.66,1.38,3.86
				c8.45-4.88,16.57-12.34,23.69-19.02c6.49-6.08,24.76-22.21,17.72-32.43c-1-1.46-2.53-2.49-4.12-3.25
				c-4.15-1.99-9.06-2.35-13.46-0.99C416.82,641.22,411.3,648.17,408.22,654.46z"/>
		</g>
		<g>
			<path class="st4" d="M632.58,800c-0.26-13-0.53-26.01-0.79-39.01c-0.33-16.46-0.67-32.92-1-49.38
				c-0.29-14.3-0.58-28.59-0.87-42.89c-0.21-10.54-0.43-21.09-0.64-31.63c-0.16-8.1-1.2-16.55,1.3-24.42
				c2.49-7.82,9.66-12.4,13.52-19.53c3-5.54,4.31-11.76,5.84-17.81c1.56-6.12,3.65-11.5,6.83-16.94
				c5.8-9.95,12.12-20.56,21.49-27.58c6.82-5.11,14.35-10.44,19.5-17.35c1.45-1.94,3.18-4.55,2.82-7.12
				c-0.68-4.85-6.42-5.82-10.16-4.15c-5.1,2.28-9.26,6.9-13.18,10.74c-8.94,8.77-23.33,25.55-28.49,20.49
				c-2.43-2.39,0.22-7.66,1.31-10.06c2.13-4.68,4.82-9.29,7.89-13.4c7.32-9.8,14.96-19.69,21.37-30.12
				c2.74-4.45,12.28-19.42,5.02-23.77c-7.39-4.43-16.31,7.5-20,12.28c-2.87,3.72-5.7,7.64-8.01,11.74
				c-3.4,6.03-7.54,11.69-11.14,17.65c-3.49,5.77-6.74,11.68-9.74,17.72c-0.47,0.94-1.03,1.97-2.02,2.31
				c-3.96,1.36,0-10.25,0.46-11.57c2.85-8.23,7-15.91,10.05-24.07c3.9-10.43,7.55-21.2,10.41-31.95c1.09-4.1,2.2-8.81,1.25-13.04
				c-1.14-5.05-7.58-7.4-11.93-4.72c-2.93,1.81-4.14,5.3-4.96,8.46c-1.01,3.9-1.82,7.7-3.13,11.53
				c-2.99,8.71-7.18,17.23-10.88,25.77c-1.91,4.4-3.71,8.85-5.18,13.42c-1.45,4.49-2.07,9.35-4.08,13.64
				c-0.39,0.84-0.87,1.7-1.68,2.14c-1,0.55-2.32,0.29-3.22-0.42c-3.67-2.88-0.66-8.02,0.27-11.52c1.78-6.7,2.44-13.47,3.43-20.3
				c1.32-9,2.96-18.01,4.32-26.94c0.84-5.5,0.69-13.29-6-14.83c-6.28-1.44-9.72,4.88-11.3,9.91c-2.22,7.06-2.18,14.84-3.73,22.14
				c-1.66,7.81-2.9,15.71-4.49,23.51c-1.52,7.46-5.14,14.5-6.92,21.95c-1.93,8.09-1.89,16.37-8.48,22.5
				c-2.18,2.03-4.99,3.55-7.97,3.53c-8.32-0.06-14.77-9.02-18.11-15.68c-3.42-6.82-7.68-13.28-13.49-18.31
				c-3.36-2.91-7.2-5.83-11.56-7c-3.95-1.06-9.47-0.15-11.32,4.01c-2.31,5.2,3.36,11.55,6.54,15.09
				c13.11,14.63,21.28,33.45,21.28,33.45s11.43,36.27,17.56,46.8c3.38,5.81,9.1,10.17,11.05,16.72c2.95,9.94,0.59,22.54,0.48,32.93
				c-0.08,6.78-0.15,13.56-0.22,20.34c-0.18,16.91-0.36,33.82-0.54,50.73c-0.3,28.01-0.59,56.01-0.87,84.02L632.58,800z"/>
			<path class="st5" d="M609.58,556.24c3.91-7.99-1.67-21.05-10.09-23.23c-1.86-0.48-3.9-0.54-5.64,0.27
				c-8.38,3.9-2.54,25.69-1.19,32.13c1.93,9.22,4.44,18.3,7.19,27.3c0.4,1.31,0.76,2.66,1.38,3.86
				c8.45-4.88,16.57-12.34,23.69-19.02c6.49-6.08,24.76-22.21,17.72-32.43c-1.01-1.46-2.53-2.49-4.12-3.25
				c-4.15-1.99-9.06-2.35-13.46-0.99C618.18,542.99,612.66,549.95,609.58,556.24z"/>
		</g>
		<g>
			<path class="st4" d="M37.4,800c3.37-10.35,6.74-20.71,10.12-31.06c5.1-15.65,10.2-31.3,15.3-46.96
				c4.43-13.6,8.86-27.19,13.29-40.79c3.27-10.03,6.53-20.06,9.8-30.09c2.51-7.71,4.31-16.02,9.26-22.63
				c4.92-6.57,13.2-8.53,19.19-14c4.65-4.25,7.93-9.69,11.38-14.9c3.48-5.27,7.23-9.65,12.02-13.75
				c8.75-7.49,18.2-15.43,29.36-18.98c8.13-2.58,16.98-5.14,24.12-9.97c2.01-1.36,4.5-3.25,5-5.79c0.95-4.81-4.15-7.61-8.23-7.26
				c-5.57,0.48-11.01,3.47-15.98,5.81c-11.33,5.34-30.44,16.45-33.64,9.98c-1.51-3.06,2.73-7.17,4.55-9.07
				c3.55-3.72,7.61-7.19,11.86-10.06c10.14-6.85,20.6-13.68,30.09-21.42c4.05-3.3,17.99-14.3,12.56-20.8
				c-5.52-6.61-17.87,1.71-22.92,5.01c-3.93,2.57-7.89,5.34-11.42,8.45c-5.19,4.57-10.96,8.56-16.32,13
				c-5.19,4.3-10.2,8.82-15.02,13.53c-0.75,0.74-1.62,1.53-2.67,1.52c-4.19-0.02,3.38-9.68,4.24-10.78
				c5.4-6.84,11.85-12.72,17.41-19.42c7.12-8.57,14.1-17.54,20.34-26.75c2.38-3.51,4.98-7.59,5.47-11.9
				c0.58-5.15-4.73-9.49-9.71-8.39c-3.36,0.74-5.66,3.65-7.47,6.36c-2.24,3.35-4.25,6.68-6.75,9.86
				c-5.68,7.24-12.44,13.91-18.75,20.76c-3.25,3.53-6.42,7.14-9.31,10.97c-2.84,3.77-5.02,8.15-8.34,11.53
				c-0.65,0.66-1.38,1.32-2.29,1.47c-1.13,0.19-2.28-0.49-2.9-1.45c-2.51-3.93,2.02-7.79,4.04-10.79
				c3.88-5.74,6.74-11.92,9.92-18.04c4.21-8.06,8.72-16.04,12.94-24.02c2.6-4.92,5.02-12.33-0.79-15.98
				c-5.45-3.43-10.78,1.41-13.93,5.64c-4.41,5.94-6.94,13.3-10.8,19.68c-4.14,6.83-7.9,13.88-11.97,20.72
				c-3.89,6.55-9.62,12.01-13.75,18.45c-4.48,7-7.17,14.84-15.41,18.46c-2.73,1.2-5.88,1.71-8.69,0.71
				c-7.83-2.79-10.98-13.37-11.95-20.77c-0.99-7.57-2.88-15.07-6.72-21.72c-2.22-3.85-4.88-7.88-8.61-10.42
				c-3.38-2.3-8.9-3.25-12.01,0.06c-3.89,4.15-0.62,12.01,1.21,16.4c7.57,18.12,9.1,38.59,9.1,38.59s-1.13,38.01,1.19,49.97
				c1.28,6.6,5.25,12.6,4.93,19.43c-0.49,10.36-6.85,21.48-10.38,31.26c-2.3,6.38-4.6,12.75-6.9,19.13
				c-5.74,15.91-11.47,31.82-17.2,47.73c-1.74,4.84-3.49,9.68-5.23,14.52L0,800L37.4,800z"/>
			<path class="st5" d="M84.4,571.54c2.91-8.41-4.23-20.68-12.86-21.82c-1.9-0.25-3.93-0.06-5.56,0.95
				c-7.84,4.9,0.63,25.8,2.75,32.04c3.04,8.91,6.65,17.62,10.48,26.22c0.56,1.25,1.08,2.54,1.84,3.66
				c7.79-5.88,14.93-14.28,21.19-21.77c5.7-6.83,21.86-25.07,13.62-34.36c-1.18-1.32-2.81-2.16-4.49-2.73
				c-4.36-1.47-9.28-1.23-13.48,0.66C91.31,557.35,86.68,564.92,84.4,571.54z"/>
		</g>
		<g>
			<path class="st4" d="M800,490.5c-0.63-0.87-1.26-1.74-1.89-2.62c-6.17-8.55-12.34-17.11-18.51-25.66
				c-4.74-6.57-10.4-12.93-12.82-20.83c-2.4-7.85,0.9-15.69,0.02-23.75c-0.69-6.26-3.14-12.12-5.32-17.97
				c-2.2-5.92-3.53-11.54-4.01-17.82c-0.88-11.48-1.73-23.8,1.99-34.91c2.71-8.09,5.87-16.75,6.18-25.36
				c0.09-2.42,0.03-5.55-1.73-7.46c-3.32-3.6-8.59-1.13-10.71,2.36c-2.9,4.78-3.69,10.94-4.73,16.33
				c-2.37,12.3-4.67,34.28-11.79,33.05c-3.36-0.58-4.18-6.43-4.64-9.02c-0.91-5.06-1.31-10.38-1.13-15.51
				c0.45-12.23,1.1-24.7,0.45-36.93c-0.28-5.22-0.94-22.96-9.38-22.41c-8.59,0.56-9.16,15.44-9.47,21.47
				c-0.25,4.69-0.34,9.53,0.09,14.21c0.63,6.89,0.44,13.9,0.87,20.85c0.41,6.73,1.1,13.44,2.06,20.11c0.15,1.04,0.28,2.21-0.35,3.05
				c-2.49,3.37-5.83-8.44-6.2-9.78c-2.34-8.39-3.29-17.07-5.41-25.52c-2.72-10.8-5.85-21.73-9.61-32.2c-1.43-4-3.19-8.5-6.39-11.43
				c-3.81-3.51-10.45-1.78-12.5,2.9c-1.38,3.15-0.39,6.72,0.73,9.78c1.38,3.78,2.88,7.37,3.98,11.27c2.5,8.86,3.9,18.26,5.7,27.38
				c0.93,4.7,1.98,9.39,3.37,13.99c1.37,4.52,3.61,8.86,4.39,13.54c0.15,0.91,0.25,1.89-0.16,2.72c-0.51,1.03-1.74,1.56-2.89,1.49
				c-4.66-0.29-5.1-6.23-6.32-9.63c-2.34-6.52-5.65-12.47-8.72-18.65c-4.03-8.15-7.81-16.5-11.77-24.62
				c-2.44-5-6.99-11.33-13.37-8.79c-5.98,2.38-5.22,9.54-3.66,14.58c2.19,7.07,6.65,13.45,9.52,20.34
				c3.08,7.37,6.55,14.57,9.67,21.89c2.99,7,4.02,14.85,6.79,21.99c3.01,7.75,7.76,14.54,5.81,23.33c-0.64,2.91-2.09,5.76-4.55,7.43
				c-6.88,4.68-17.28,0.98-23.82-2.6c-6.7-3.66-13.87-6.56-21.5-7.39c-4.42-0.48-9.24-0.71-13.49,0.81
				c-3.85,1.37-7.87,5.27-7.03,9.73c1.05,5.59,9.33,7.59,13.96,8.7c19.1,4.58,36.53,15.42,36.53,15.42s30.02,23.33,41.05,28.52
				c6.08,2.86,13.27,3.19,18.6,7.48c8.08,6.51,13.3,18.2,19.12,26.82c3.79,5.62,7.58,11.24,11.38,16.86
				c9.46,14.02,18.93,28.03,28.4,42.04c7.74,11.45,15.48,22.9,23.22,34.35L800,490.5z"/>
			<path class="st5" d="M718.4,407.17c1.39-8.79-7.79-19.62-16.49-19.23c-1.92,0.09-3.88,0.63-5.31,1.92
				c-6.86,6.2,5.14,25.29,8.33,31.06c4.55,8.24,9.64,16.18,14.92,23.97c0.77,1.14,1.51,2.31,2.45,3.28
				c6.64-7.15,12.2-16.67,17.04-25.15c4.41-7.72,17.12-28.52,7.38-36.21c-1.39-1.1-3.15-1.63-4.9-1.9
				c-4.55-0.68-9.35,0.42-13.15,3.02C722.71,391.98,719.49,400.25,718.4,407.17z"/>
		</g>
		<path class="st5" d="M124.08,203.41c-2.82-8.44,4.44-20.64,13.08-21.69c1.91-0.23,3.94-0.02,5.55,1.01
			c7.79,4.98-0.89,25.8-3.08,32.01c-3.13,8.88-6.83,17.55-10.75,26.11c-0.57,1.25-1.11,2.53-1.88,3.64
			c-7.73-5.96-14.79-14.43-20.97-21.99c-5.63-6.89-21.6-25.29-13.27-34.49c1.19-1.31,2.83-2.13,4.52-2.68
			c4.38-1.42,9.29-1.13,13.47,0.8C117.31,189.15,121.86,196.78,124.08,203.41z"/>
		<path class="st5" d="M717.75,190.36c2.82-8.44-4.44-20.64-13.08-21.69c-1.91-0.23-3.94-0.02-5.55,1.01
			c-7.79,4.98,0.89,25.8,3.08,32.01c3.13,8.88,6.83,17.55,10.75,26.11c0.57,1.25,1.11,2.53,1.88,3.64
			c7.73-5.96,14.79-14.43,20.97-21.99c5.63-6.89,21.6-25.29,13.27-34.49c-1.19-1.31-2.83-2.13-4.52-2.68
			c-4.38-1.42-9.29-1.13-13.47,0.8C724.52,176.1,719.97,183.72,717.75,190.36z"/>
		<path class="st4" d="M393.23,263.46c-2.46-7.35,3.87-17.98,11.39-18.89c1.66-0.2,3.43-0.02,4.84,0.88
			c6.78,4.34-0.77,22.47-2.68,27.88c-2.73,7.73-5.95,15.29-9.36,22.74c-0.5,1.09-0.96,2.2-1.63,3.17
			c-6.73-5.19-12.88-12.57-18.26-19.15c-4.9-6-18.82-22.03-11.56-30.04c1.04-1.14,2.47-1.86,3.94-2.33
			c3.81-1.24,8.09-0.99,11.73,0.7C387.34,251.03,391.3,257.67,393.23,263.46z"/>
		<path class="st4" d="M252.4,191.61c2.46-7.35-3.87-17.98-11.39-18.89c-1.66-0.2-3.43-0.02-4.84,0.88
			c-6.78,4.34,0.77,22.47,2.68,27.88c2.73,7.74,5.95,15.29,9.36,22.74c0.5,1.09,0.96,2.2,1.63,3.17
			c6.73-5.19,12.88-12.57,18.26-19.15c4.9-6,18.82-22.03,11.56-30.04c-1.04-1.14-2.47-1.86-3.94-2.33
			c-3.81-1.24-8.09-0.99-11.73,0.7C258.29,179.19,254.33,185.83,252.4,191.61z"/>
		<path class="st5" d="M504.43,167.03c-2.46-7.35,3.87-17.98,11.39-18.89c1.66-0.2,3.43-0.02,4.84,0.88
			c6.78,4.34-0.77,22.47-2.68,27.88c-2.73,7.74-5.95,15.29-9.36,22.74c-0.5,1.09-0.96,2.2-1.63,3.17
			c-6.73-5.19-12.88-12.57-18.26-19.15c-4.9-6-18.82-22.03-11.56-30.04c1.04-1.14,2.47-1.86,3.94-2.33
			c3.81-1.24,8.09-0.99,11.73,0.7C498.53,154.6,502.5,161.24,504.43,167.03z"/>
		<path class="st5" d="M270.29,318.11c1.64-4.92-2.59-12.04-7.63-12.65c-1.11-0.14-2.3-0.01-3.24,0.59
			c-4.54,2.9,0.52,15.05,1.79,18.67c1.82,5.18,3.98,10.24,6.27,15.23c0.33,0.73,0.65,1.48,1.09,2.12
			c4.51-3.47,8.62-8.41,12.23-12.82c3.28-4.02,12.6-14.75,7.74-20.12c-0.69-0.77-1.65-1.24-2.64-1.56
			c-2.55-0.83-5.42-0.66-7.86,0.47C274.23,309.79,271.58,314.24,270.29,318.11z"/>
		<path class="st4" d="M598.61,275.28c1.64-4.92-2.59-12.04-7.63-12.65c-1.11-0.14-2.3-0.01-3.24,0.59
			c-4.54,2.9,0.52,15.05,1.79,18.67c1.82,5.18,3.98,10.24,6.27,15.23c0.33,0.73,0.65,1.48,1.09,2.12
			c4.51-3.47,8.62-8.41,12.23-12.82c3.28-4.02,12.6-14.75,7.74-20.12c-0.69-0.77-1.65-1.24-2.64-1.56
			c-2.55-0.83-5.42-0.66-7.86,0.47C602.56,266.96,599.91,271.4,598.61,275.28z"/>
		<path class="st4" d="M53.4,397.37c1.64-4.92-2.59-12.04-7.63-12.65c-1.11-0.14-2.3-0.01-3.24,0.59
			c-4.54,2.9,0.52,15.05,1.79,18.67c1.82,5.18,3.98,10.24,6.27,15.23c0.33,0.73,0.65,1.48,1.09,2.12
			c4.51-3.47,8.62-8.41,12.23-12.82c3.28-4.02,12.6-14.75,7.74-20.12c-0.69-0.77-1.65-1.24-2.64-1.56
			c-2.55-0.83-5.42-0.66-7.86,0.47C57.35,389.05,54.7,393.49,53.4,397.37z"/>
		<text transform="matrix(1 0 0 1 202.1089 114.2811)" class="st6"><tspan x="0" y="0" class="st7 st8 st9">Charity </tspan><tspan x="193.05" y="0" class="st7 st10 st9">Background</tspan></text>
	</g>
</g>
<g id="DESIGNED_BY_FREEPIK" class="st6">
	<g class="st11">
		<g>
			<path class="st4" d="M288.49,44.05v-0.26c-0.35,0.4-0.69,0.72-1.03,0.97c-0.34,0.25-0.71,0.44-1.1,0.57
				c-0.4,0.13-0.83,0.2-1.3,0.2c-0.62,0-1.2-0.13-1.72-0.39c-0.53-0.26-0.99-0.64-1.37-1.13c-0.39-0.49-0.68-1.06-0.88-1.72
				c-0.2-0.66-0.3-1.37-0.3-2.14c0-1.62,0.4-2.88,1.19-3.79c0.79-0.9,1.83-1.36,3.12-1.36c0.75,0,1.38,0.13,1.89,0.38
				c0.51,0.26,1.01,0.65,1.5,1.18v-3.83c0-0.53,0.11-0.93,0.32-1.21c0.21-0.27,0.51-0.41,0.91-0.41c0.39,0,0.69,0.12,0.91,0.38
				c0.21,0.25,0.32,0.62,0.32,1.11v11.44c0,0.49-0.11,0.86-0.34,1.11c-0.23,0.25-0.52,0.37-0.88,0.37c-0.35,0-0.65-0.13-0.88-0.38
				C288.61,44.89,288.49,44.52,288.49,44.05z M283.39,40.24c0,0.7,0.11,1.3,0.33,1.79c0.22,0.49,0.52,0.87,0.9,1.12
				c0.38,0.25,0.79,0.38,1.24,0.38c0.46,0,0.87-0.12,1.25-0.36c0.38-0.24,0.68-0.6,0.9-1.09c0.23-0.49,0.34-1.11,0.34-1.84
				c0-0.69-0.11-1.29-0.34-1.78c-0.22-0.5-0.53-0.88-0.91-1.14c-0.38-0.26-0.8-0.39-1.26-0.39c-0.47,0-0.9,0.13-1.27,0.4
				c-0.37,0.27-0.66,0.65-0.87,1.16C283.49,38.99,283.39,39.57,283.39,40.24z"/>
			<path class="st4" d="M299.93,40.9h-5.07c0.01,0.59,0.12,1.11,0.36,1.56c0.23,0.45,0.54,0.79,0.92,1.02
				c0.38,0.23,0.81,0.34,1.27,0.34c0.31,0,0.59-0.04,0.85-0.11c0.26-0.07,0.5-0.19,0.75-0.34c0.24-0.15,0.46-0.32,0.66-0.5
				c0.2-0.18,0.46-0.42,0.79-0.72c0.13-0.11,0.32-0.17,0.57-0.17c0.27,0,0.48,0.07,0.64,0.22c0.16,0.15,0.25,0.35,0.25,0.62
				c0,0.23-0.09,0.51-0.28,0.82c-0.19,0.31-0.46,0.62-0.83,0.9c-0.37,0.29-0.84,0.53-1.4,0.72c-0.56,0.19-1.2,0.29-1.93,0.29
				c-1.66,0-2.96-0.47-3.88-1.42c-0.92-0.95-1.39-2.24-1.39-3.87c0-0.77,0.11-1.48,0.34-2.13c0.23-0.66,0.56-1.22,1-1.69
				c0.44-0.47,0.98-0.83,1.62-1.08c0.64-0.25,1.35-0.38,2.13-0.38c1.01,0,1.88,0.21,2.61,0.64c0.73,0.43,1.27,0.98,1.63,1.66
				c0.36,0.68,0.54,1.37,0.54,2.07c0,0.65-0.19,1.08-0.56,1.27C301.13,40.8,300.6,40.9,299.93,40.9z M294.85,39.42h4.7
				c-0.06-0.89-0.3-1.55-0.72-1.99c-0.41-0.44-0.96-0.66-1.64-0.66c-0.65,0-1.18,0.22-1.59,0.67
				C295.2,37.89,294.94,38.55,294.85,39.42z"/>
			<path class="st4" d="M311.74,42.14c0,0.71-0.17,1.33-0.52,1.84c-0.35,0.51-0.86,0.9-1.54,1.16c-0.68,0.26-1.51,0.39-2.48,0.39
				c-0.93,0-1.73-0.14-2.39-0.43c-0.66-0.28-1.16-0.64-1.47-1.07c-0.32-0.43-0.48-0.86-0.48-1.29c0-0.29,0.1-0.53,0.3-0.73
				c0.2-0.2,0.46-0.3,0.77-0.3c0.27,0,0.48,0.07,0.63,0.2c0.15,0.13,0.29,0.32,0.42,0.56c0.27,0.46,0.58,0.81,0.96,1.04
				c0.37,0.23,0.87,0.34,1.52,0.34c0.52,0,0.94-0.12,1.28-0.35c0.33-0.23,0.5-0.5,0.5-0.79c0-0.46-0.17-0.79-0.52-1
				c-0.35-0.21-0.91-0.41-1.71-0.6c-0.89-0.22-1.62-0.46-2.18-0.7c-0.56-0.24-1.01-0.56-1.34-0.96c-0.34-0.4-0.5-0.89-0.5-1.47
				c0-0.52,0.15-1.01,0.47-1.47c0.31-0.46,0.77-0.83,1.37-1.11c0.6-0.28,1.33-0.41,2.19-0.41c0.67,0,1.27,0.07,1.81,0.21
				c0.54,0.14,0.98,0.33,1.34,0.56c0.36,0.23,0.63,0.49,0.82,0.78c0.19,0.29,0.28,0.56,0.28,0.84c0,0.3-0.1,0.54-0.3,0.73
				c-0.2,0.19-0.48,0.29-0.85,0.29c-0.27,0-0.49-0.08-0.68-0.23c-0.19-0.15-0.4-0.38-0.64-0.68c-0.2-0.25-0.43-0.46-0.69-0.61
				c-0.27-0.15-0.63-0.23-1.08-0.23c-0.47,0-0.86,0.1-1.17,0.3c-0.31,0.2-0.47,0.45-0.47,0.74c0,0.27,0.11,0.5,0.34,0.67
				c0.23,0.18,0.54,0.32,0.92,0.43c0.39,0.11,0.92,0.25,1.6,0.42c0.8,0.2,1.46,0.43,1.97,0.7c0.51,0.27,0.9,0.59,1.16,0.96
				C311.61,41.24,311.74,41.66,311.74,42.14z"/>
			<path class="st4" d="M314.39,33.78c-0.36,0-0.67-0.11-0.93-0.33c-0.26-0.22-0.38-0.54-0.38-0.94c0-0.37,0.13-0.67,0.39-0.91
				c0.26-0.24,0.57-0.36,0.92-0.36c0.34,0,0.63,0.11,0.89,0.32c0.26,0.21,0.39,0.53,0.39,0.94c0,0.4-0.13,0.71-0.38,0.94
				C315.04,33.67,314.74,33.78,314.39,33.78z M315.67,36.46v7.49c0,0.52-0.12,0.91-0.37,1.18c-0.25,0.27-0.56,0.4-0.94,0.4
				s-0.69-0.13-0.93-0.41c-0.24-0.27-0.36-0.66-0.36-1.17v-7.42c0-0.51,0.12-0.9,0.36-1.16c0.24-0.26,0.55-0.39,0.93-0.39
				s0.69,0.13,0.94,0.39C315.55,35.64,315.67,36,315.67,36.46z"/>
			<path class="st4" d="M327.03,36.89v7.53c0,0.86-0.09,1.6-0.28,2.22c-0.18,0.62-0.48,1.13-0.88,1.54c-0.41,0.4-0.94,0.71-1.59,0.9
				c-0.66,0.2-1.47,0.29-2.45,0.29c-0.89,0-1.69-0.12-2.39-0.38c-0.7-0.25-1.24-0.57-1.62-0.97c-0.38-0.4-0.57-0.8-0.57-1.22
				c0-0.32,0.11-0.58,0.32-0.77c0.21-0.2,0.48-0.3,0.78-0.3c0.38,0,0.71,0.17,1,0.5c0.14,0.17,0.28,0.34,0.43,0.52
				c0.15,0.18,0.31,0.32,0.49,0.45c0.18,0.12,0.4,0.21,0.65,0.28c0.25,0.06,0.55,0.09,0.87,0.09c0.67,0,1.19-0.09,1.56-0.28
				c0.37-0.19,0.63-0.45,0.78-0.78c0.15-0.33,0.24-0.69,0.26-1.08c0.03-0.38,0.04-1,0.06-1.85c-0.4,0.56-0.86,0.98-1.38,1.27
				c-0.52,0.29-1.14,0.44-1.87,0.44c-0.87,0-1.63-0.22-2.28-0.67c-0.65-0.44-1.15-1.06-1.5-1.86c-0.35-0.8-0.52-1.72-0.52-2.76
				c0-0.78,0.11-1.48,0.32-2.11c0.21-0.63,0.52-1.16,0.91-1.59c0.39-0.43,0.85-0.75,1.36-0.97c0.51-0.22,1.08-0.33,1.69-0.33
				c0.73,0,1.37,0.14,1.91,0.42c0.54,0.28,1.04,0.72,1.5,1.33V36.4c0-0.45,0.11-0.8,0.33-1.04c0.22-0.25,0.51-0.37,0.86-0.37
				c0.5,0,0.83,0.16,1,0.49C326.95,35.8,327.03,36.27,327.03,36.89z M319.52,40.17c0,1.05,0.23,1.85,0.69,2.38
				c0.46,0.54,1.05,0.81,1.78,0.81c0.43,0,0.84-0.12,1.22-0.35c0.38-0.23,0.7-0.58,0.94-1.05c0.24-0.46,0.36-1.03,0.36-1.7
				c0-1.06-0.23-1.88-0.7-2.47c-0.47-0.59-1.08-0.88-1.84-0.88c-0.74,0-1.33,0.28-1.78,0.85C319.74,38.33,319.52,39.13,319.52,40.17
				z"/>
			<path class="st4" d="M331.15,36.42v0.31c0.46-0.6,0.95-1.04,1.5-1.32c0.54-0.28,1.16-0.42,1.87-0.42c0.68,0,1.29,0.15,1.83,0.45
				c0.54,0.3,0.94,0.72,1.21,1.26c0.17,0.32,0.28,0.66,0.33,1.03c0.05,0.37,0.08,0.84,0.08,1.41v4.82c0,0.52-0.12,0.91-0.36,1.18
				c-0.24,0.27-0.55,0.4-0.93,0.4c-0.39,0-0.7-0.13-0.94-0.41c-0.24-0.27-0.36-0.66-0.36-1.17v-4.32c0-0.85-0.12-1.51-0.36-1.96
				c-0.24-0.45-0.71-0.68-1.42-0.68c-0.46,0-0.88,0.14-1.26,0.41c-0.38,0.28-0.66,0.65-0.84,1.13c-0.13,0.39-0.19,1.11-0.19,2.17
				v3.25c0,0.53-0.12,0.92-0.37,1.18c-0.24,0.26-0.56,0.39-0.94,0.39c-0.37,0-0.68-0.13-0.92-0.41c-0.24-0.27-0.36-0.66-0.36-1.17
				v-7.49c0-0.49,0.11-0.86,0.32-1.11c0.22-0.24,0.51-0.37,0.88-0.37c0.23,0,0.43,0.05,0.62,0.16c0.18,0.11,0.33,0.27,0.44,0.48
				C331.1,35.85,331.15,36.11,331.15,36.42z"/>
			<path class="st4" d="M346.93,40.9h-5.07c0.01,0.59,0.12,1.11,0.36,1.56c0.23,0.45,0.54,0.79,0.92,1.02
				c0.38,0.23,0.81,0.34,1.27,0.34c0.31,0,0.59-0.04,0.85-0.11c0.26-0.07,0.5-0.19,0.75-0.34c0.24-0.15,0.46-0.32,0.67-0.5
				c0.2-0.18,0.46-0.42,0.79-0.72c0.13-0.11,0.32-0.17,0.57-0.17c0.27,0,0.48,0.07,0.65,0.22c0.16,0.15,0.25,0.35,0.25,0.62
				c0,0.23-0.09,0.51-0.28,0.82c-0.18,0.31-0.46,0.62-0.83,0.9c-0.37,0.29-0.83,0.53-1.4,0.72c-0.56,0.19-1.21,0.29-1.93,0.29
				c-1.67,0-2.96-0.47-3.89-1.42c-0.92-0.95-1.39-2.24-1.39-3.87c0-0.77,0.11-1.48,0.34-2.13c0.23-0.66,0.56-1.22,1-1.69
				c0.44-0.47,0.98-0.83,1.61-1.08c0.64-0.25,1.35-0.38,2.13-0.38c1.01,0,1.88,0.21,2.61,0.64c0.73,0.43,1.27,0.98,1.63,1.66
				c0.36,0.68,0.54,1.37,0.54,2.07c0,0.65-0.19,1.08-0.56,1.27C348.13,40.8,347.6,40.9,346.93,40.9z M341.86,39.42h4.7
				c-0.06-0.89-0.3-1.55-0.72-1.99c-0.42-0.44-0.96-0.66-1.64-0.66c-0.65,0-1.18,0.22-1.59,0.67
				C342.19,37.89,341.94,38.55,341.86,39.42z"/>
			<path class="st4" d="M357.5,44.05v-0.26c-0.35,0.4-0.69,0.72-1.03,0.97c-0.34,0.25-0.71,0.44-1.1,0.57
				c-0.4,0.13-0.83,0.2-1.3,0.2c-0.62,0-1.2-0.13-1.72-0.39c-0.53-0.26-0.99-0.64-1.37-1.13c-0.39-0.49-0.68-1.06-0.88-1.72
				c-0.2-0.66-0.3-1.37-0.3-2.14c0-1.62,0.4-2.88,1.19-3.79c0.79-0.9,1.83-1.36,3.12-1.36c0.75,0,1.38,0.13,1.89,0.38
				c0.51,0.26,1.01,0.65,1.5,1.18v-3.83c0-0.53,0.11-0.93,0.32-1.21c0.21-0.27,0.51-0.41,0.91-0.41c0.39,0,0.69,0.12,0.91,0.38
				c0.21,0.25,0.32,0.62,0.32,1.11v11.44c0,0.49-0.11,0.86-0.34,1.11c-0.23,0.25-0.52,0.37-0.88,0.37c-0.35,0-0.65-0.13-0.88-0.38
				C357.61,44.89,357.5,44.52,357.5,44.05z M352.4,40.24c0,0.7,0.11,1.3,0.33,1.79c0.22,0.49,0.52,0.87,0.9,1.12
				c0.38,0.25,0.79,0.38,1.24,0.38c0.46,0,0.87-0.12,1.25-0.36c0.38-0.24,0.68-0.6,0.9-1.09c0.23-0.49,0.34-1.11,0.34-1.84
				c0-0.69-0.11-1.29-0.34-1.78c-0.22-0.5-0.53-0.88-0.91-1.14c-0.38-0.26-0.8-0.39-1.26-0.39c-0.47,0-0.9,0.13-1.27,0.4
				c-0.37,0.27-0.66,0.65-0.87,1.16C352.5,38.99,352.4,39.57,352.4,40.24z"/>
			<path class="st4" d="M368.09,32.61v3.96c0.49-0.51,0.98-0.89,1.49-1.16c0.51-0.27,1.13-0.4,1.88-0.4c0.86,0,1.62,0.21,2.27,0.61
				c0.65,0.41,1.15,1,1.51,1.78c0.36,0.78,0.54,1.7,0.54,2.76c0,0.79-0.1,1.5-0.3,2.16c-0.2,0.66-0.49,1.22-0.87,1.71
				c-0.38,0.48-0.84,0.85-1.38,1.12c-0.54,0.26-1.14,0.39-1.79,0.39c-0.4,0-0.77-0.05-1.13-0.14c-0.35-0.09-0.65-0.22-0.9-0.38
				c-0.25-0.15-0.46-0.31-0.63-0.48c-0.17-0.16-0.4-0.41-0.69-0.74v0.26c0,0.49-0.12,0.86-0.35,1.11c-0.23,0.25-0.53,0.37-0.89,0.37
				c-0.37,0-0.66-0.12-0.88-0.37c-0.22-0.25-0.33-0.62-0.33-1.11V32.73c0-0.53,0.11-0.92,0.32-1.19c0.21-0.27,0.51-0.4,0.89-0.4
				c0.4,0,0.71,0.13,0.92,0.38C367.99,31.77,368.09,32.14,368.09,32.61z M368.22,40.32c0,1.03,0.24,1.82,0.71,2.38
				c0.47,0.55,1.09,0.83,1.86,0.83c0.65,0,1.21-0.28,1.69-0.85c0.47-0.57,0.71-1.38,0.71-2.44c0-0.68-0.1-1.27-0.29-1.77
				c-0.2-0.49-0.47-0.88-0.83-1.14c-0.36-0.27-0.78-0.4-1.26-0.4c-0.49,0-0.94,0.13-1.32,0.4c-0.39,0.27-0.69,0.66-0.91,1.17
				C368.33,39.01,368.22,39.61,368.22,40.32z"/>
			<path class="st4" d="M379.14,45.85l0.24-0.58l-3.19-8.04c-0.2-0.46-0.29-0.8-0.29-1.01c0-0.22,0.06-0.43,0.17-0.62
				c0.12-0.19,0.27-0.34,0.47-0.46c0.2-0.12,0.41-0.17,0.62-0.17c0.37,0,0.66,0.12,0.85,0.36c0.19,0.24,0.36,0.58,0.5,1.02
				l2.19,6.38l2.08-5.94c0.16-0.48,0.31-0.86,0.45-1.13c0.13-0.27,0.27-0.46,0.42-0.55c0.15-0.1,0.36-0.14,0.63-0.14
				c0.2,0,0.38,0.05,0.56,0.16c0.18,0.1,0.32,0.24,0.42,0.42c0.1,0.18,0.15,0.36,0.15,0.56c-0.03,0.12-0.07,0.29-0.12,0.51
				c-0.06,0.22-0.13,0.45-0.21,0.67l-3.38,8.85c-0.29,0.78-0.58,1.39-0.86,1.83c-0.28,0.44-0.65,0.79-1.11,1.02
				c-0.46,0.24-1.08,0.36-1.86,0.36c-0.76,0-1.33-0.08-1.71-0.25c-0.38-0.17-0.57-0.47-0.57-0.9c0-0.3,0.09-0.53,0.27-0.69
				c0.18-0.16,0.45-0.24,0.8-0.24c0.14,0,0.28,0.02,0.41,0.06c0.16,0.04,0.31,0.06,0.43,0.06c0.3,0,0.53-0.04,0.7-0.13
				c0.17-0.09,0.32-0.24,0.46-0.46C378.81,46.6,378.96,46.28,379.14,45.85z"/>
		</g>
		<g>
			<g>
				<path class="st4" d="M416.7,35.21h0.62v-0.78c0-0.81,0.1-1.46,0.31-1.94c0.2-0.48,0.55-0.83,1.05-1.05
					c0.49-0.22,1.16-0.33,2.02-0.33c1.52,0,2.27,0.37,2.27,1.11c0,0.24-0.08,0.45-0.24,0.62c-0.15,0.17-0.34,0.26-0.56,0.26
					c-0.1,0-0.28-0.02-0.53-0.06c-0.24-0.03-0.45-0.06-0.62-0.06c-0.47,0-0.77,0.14-0.9,0.42c-0.13,0.28-0.2,0.67-0.2,1.18v0.62
					h0.63c0.99,0,1.48,0.3,1.48,0.9c0,0.42-0.13,0.69-0.39,0.8c-0.26,0.11-0.62,0.17-1.09,0.17h-0.63v6.87
					c0,0.51-0.12,0.9-0.37,1.17c-0.24,0.27-0.55,0.41-0.94,0.41c-0.37,0-0.67-0.13-0.92-0.41c-0.24-0.27-0.36-0.66-0.36-1.17v-6.87
					h-0.71c-0.39,0-0.68-0.08-0.89-0.26c-0.21-0.17-0.31-0.4-0.31-0.68C415.4,35.52,415.83,35.21,416.7,35.21"/>
				<path class="st4" d="M425.19,41.79v2.17c0,0.52-0.13,0.92-0.38,1.18c-0.25,0.27-0.56,0.39-0.94,0.39c-0.38,0-0.69-0.13-0.93-0.4
					c-0.24-0.26-0.36-0.66-0.36-1.17v-7.22c0-1.17,0.42-1.75,1.26-1.75c0.43,0,0.74,0.13,0.93,0.41c0.19,0.27,0.29,0.67,0.32,1.21
					c0.31-0.53,0.62-0.93,0.95-1.21c0.33-0.27,0.76-0.41,1.31-0.41c0.55,0,1.07,0.13,1.59,0.41c0.52,0.27,0.77,0.64,0.77,1.08
					c0,0.31-0.11,0.58-0.33,0.78c-0.22,0.21-0.46,0.31-0.71,0.31c-0.1,0-0.33-0.06-0.69-0.18c-0.37-0.11-0.69-0.17-0.96-0.17
					c-0.38,0-0.69,0.1-0.93,0.3c-0.24,0.21-0.43,0.5-0.56,0.89c-0.13,0.39-0.22,0.87-0.27,1.4
					C425.21,40.35,425.19,41.01,425.19,41.79"/>
				<path class="st4" d="M437.11,40.89h-5.07c0.01,0.59,0.12,1.11,0.36,1.56c0.23,0.45,0.54,0.79,0.92,1.02
					c0.38,0.23,0.8,0.34,1.27,0.34c0.31,0,0.59-0.03,0.85-0.11c0.25-0.07,0.5-0.19,0.74-0.34c0.24-0.15,0.46-0.32,0.66-0.5
					c0.2-0.17,0.47-0.42,0.79-0.72c0.13-0.11,0.32-0.17,0.57-0.17c0.27,0,0.48,0.07,0.65,0.22c0.17,0.15,0.24,0.35,0.24,0.62
					c0,0.23-0.09,0.51-0.27,0.82c-0.19,0.32-0.46,0.62-0.84,0.91c-0.38,0.29-0.84,0.53-1.4,0.71c-0.56,0.19-1.21,0.29-1.93,0.29
					c-1.67,0-2.96-0.47-3.89-1.42c-0.92-0.95-1.39-2.24-1.39-3.87c0-0.77,0.12-1.48,0.35-2.13c0.22-0.66,0.56-1.22,1-1.69
					c0.44-0.47,0.97-0.83,1.61-1.08c0.64-0.25,1.35-0.38,2.13-0.38c1.01,0,1.88,0.21,2.61,0.65c0.72,0.42,1.27,0.98,1.63,1.65
					c0.36,0.68,0.54,1.37,0.54,2.07c0,0.65-0.19,1.07-0.56,1.27C438.32,40.8,437.79,40.89,437.11,40.89 M432.04,39.42h4.7
					c-0.06-0.88-0.3-1.55-0.71-1.99c-0.42-0.44-0.96-0.66-1.64-0.66c-0.65,0-1.18,0.22-1.59,0.67
					C432.38,37.89,432.13,38.54,432.04,39.42"/>
				<path class="st4" d="M447.9,40.89h-5.07c0.01,0.59,0.12,1.11,0.35,1.56c0.23,0.45,0.54,0.79,0.92,1.02
					c0.38,0.23,0.8,0.34,1.27,0.34c0.31,0,0.59-0.03,0.84-0.11c0.26-0.07,0.51-0.19,0.75-0.34c0.24-0.15,0.46-0.32,0.66-0.5
					c0.2-0.17,0.46-0.42,0.79-0.72c0.13-0.11,0.33-0.17,0.57-0.17c0.27,0,0.48,0.07,0.65,0.22c0.16,0.15,0.24,0.35,0.24,0.62
					c0,0.23-0.09,0.51-0.27,0.82c-0.18,0.32-0.46,0.62-0.83,0.91c-0.37,0.29-0.84,0.53-1.4,0.71c-0.56,0.19-1.21,0.29-1.93,0.29
					c-1.67,0-2.96-0.47-3.89-1.42c-0.92-0.95-1.39-2.24-1.39-3.87c0-0.77,0.12-1.48,0.35-2.13c0.23-0.66,0.56-1.22,1-1.69
					c0.44-0.47,0.97-0.83,1.61-1.08c0.64-0.25,1.35-0.38,2.13-0.38c1.01,0,1.88,0.21,2.61,0.65c0.72,0.42,1.27,0.98,1.62,1.65
					c0.36,0.68,0.54,1.37,0.54,2.07c0,0.65-0.19,1.07-0.56,1.27C449.1,40.8,448.58,40.89,447.9,40.89 M442.83,39.42h4.7
					c-0.06-0.88-0.3-1.55-0.71-1.99c-0.42-0.44-0.96-0.66-1.64-0.66c-0.65,0-1.18,0.22-1.59,0.67
					C443.17,37.89,442.91,38.54,442.83,39.42"/>
				<path class="st4" d="M453.58,36.44v0.31c0.49-0.6,0.99-1.04,1.53-1.32c0.52-0.29,1.12-0.43,1.78-0.43
					c0.79,0,1.54,0.21,2.21,0.62c0.67,0.41,1.2,1.02,1.59,1.81c0.39,0.79,0.59,1.73,0.59,2.81c0,0.79-0.11,1.53-0.34,2.2
					c-0.22,0.67-0.54,1.23-0.93,1.68c-0.39,0.45-0.86,0.8-1.39,1.04c-0.54,0.24-1.11,0.36-1.73,0.36c-0.74,0-1.36-0.15-1.87-0.45
					c-0.5-0.29-0.98-0.73-1.44-1.3v3.89c0,1.13-0.42,1.71-1.24,1.71c-0.49,0-0.81-0.15-0.97-0.44c-0.15-0.3-0.23-0.72-0.23-1.29
					V36.45c0-0.49,0.11-0.86,0.32-1.11c0.21-0.24,0.51-0.36,0.88-0.36c0.37,0,0.67,0.12,0.9,0.37
					C453.47,35.61,453.58,35.97,453.58,36.44 M458.66,40.21c0-0.69-0.11-1.27-0.31-1.76c-0.21-0.49-0.5-0.87-0.87-1.13
					c-0.37-0.26-0.78-0.4-1.23-0.4c-0.71,0-1.32,0.28-1.81,0.84c-0.49,0.57-0.74,1.39-0.74,2.49c0,1.03,0.24,1.83,0.74,2.41
					c0.49,0.57,1.09,0.86,1.81,0.86c0.43,0,0.83-0.13,1.2-0.37c0.37-0.25,0.66-0.63,0.88-1.13
					C458.55,41.52,458.66,40.92,458.66,40.21"/>
				<path class="st4" d="M463.88,33.78c-0.36,0-0.67-0.12-0.92-0.34c-0.26-0.22-0.39-0.53-0.39-0.94c0-0.37,0.13-0.67,0.4-0.91
					c0.26-0.23,0.57-0.36,0.91-0.36c0.34,0,0.63,0.11,0.89,0.32c0.26,0.22,0.39,0.54,0.39,0.95c0,0.4-0.13,0.71-0.38,0.94
					C464.53,33.66,464.23,33.78,463.88,33.78 M465.16,36.45v7.5c0,0.52-0.12,0.91-0.37,1.17c-0.25,0.27-0.56,0.4-0.94,0.4
					c-0.38,0-0.69-0.13-0.93-0.41c-0.23-0.28-0.36-0.66-0.36-1.17v-7.43c0-0.51,0.12-0.89,0.36-1.15c0.24-0.26,0.55-0.39,0.93-0.39
					c0.38,0,0.69,0.13,0.94,0.39C465.04,35.63,465.16,36,465.16,36.45"/>
				<path class="st4" d="M473.52,44.34l-2.28-3.77l-1.41,1.33v2.07c0,0.5-0.13,0.88-0.4,1.15c-0.26,0.27-0.57,0.41-0.91,0.41
					c-0.4,0-0.71-0.13-0.94-0.4c-0.23-0.26-0.34-0.66-0.34-1.17V32.89c0-0.57,0.12-1.01,0.33-1.31c0.22-0.3,0.54-0.45,0.95-0.45
					c0.4,0,0.71,0.14,0.95,0.41c0.23,0.27,0.35,0.67,0.35,1.2v6.29l2.92-3.06c0.36-0.38,0.63-0.64,0.83-0.78
					c0.19-0.14,0.42-0.21,0.69-0.21c0.33,0,0.59,0.1,0.82,0.31c0.21,0.21,0.32,0.46,0.32,0.77c0,0.38-0.35,0.89-1.05,1.52
					l-1.38,1.26l2.66,4.18c0.19,0.31,0.34,0.54,0.42,0.71c0.08,0.16,0.13,0.32,0.13,0.46c0,0.41-0.12,0.73-0.34,0.97
					c-0.22,0.24-0.52,0.35-0.88,0.35c-0.32,0-0.56-0.08-0.73-0.26C474.05,45.1,473.81,44.79,473.52,44.34"/>
				<path class="st4" d="M479.16,45.53c-0.39,0-0.73-0.12-1.01-0.38c-0.29-0.25-0.43-0.61-0.43-1.06c0-0.38,0.14-0.72,0.41-0.99
					c0.28-0.28,0.61-0.42,1.01-0.42c0.4,0,0.74,0.14,1.02,0.41c0.28,0.28,0.42,0.61,0.42,1c0,0.45-0.14,0.81-0.42,1.06
					C479.87,45.4,479.54,45.53,479.16,45.53"/>
				<path class="st4" d="M492.06,42.32c0,0.32-0.1,0.67-0.29,1.03c-0.19,0.37-0.49,0.72-0.89,1.05c-0.39,0.33-0.89,0.6-1.49,0.8
					c-0.6,0.2-1.28,0.31-2.03,0.31c-1.61,0-2.86-0.47-3.76-1.4c-0.89-0.94-1.35-2.19-1.35-3.76c0-1.07,0.21-2.01,0.62-2.82
					c0.41-0.81,1-1.45,1.78-1.89c0.78-0.45,1.72-0.67,2.79-0.67c0.67,0,1.29,0.1,1.85,0.29c0.56,0.2,1.03,0.45,1.43,0.76
					c0.39,0.31,0.69,0.64,0.89,0.99c0.21,0.35,0.31,0.68,0.31,0.99c0,0.31-0.11,0.57-0.34,0.79c-0.23,0.21-0.52,0.32-0.84,0.32
					c-0.22,0-0.4-0.06-0.54-0.17c-0.14-0.11-0.3-0.29-0.48-0.54c-0.32-0.48-0.65-0.84-1-1.08c-0.34-0.24-0.78-0.36-1.31-0.36
					c-0.76,0-1.38,0.3-1.85,0.9c-0.47,0.6-0.7,1.42-0.7,2.46c0,0.49,0.06,0.94,0.18,1.35c0.12,0.41,0.29,0.76,0.52,1.04
					c0.23,0.29,0.5,0.51,0.83,0.65c0.32,0.15,0.68,0.23,1.06,0.23c0.52,0,0.97-0.12,1.34-0.36c0.38-0.24,0.7-0.61,0.99-1.1
					c0.16-0.29,0.33-0.52,0.51-0.68c0.18-0.16,0.41-0.25,0.68-0.25c0.32,0,0.58,0.12,0.79,0.36
					C491.95,41.79,492.06,42.05,492.06,42.32"/>
				<path class="st4" d="M503.25,40.26c0,0.77-0.12,1.48-0.36,2.14c-0.25,0.65-0.59,1.21-1.05,1.68c-0.45,0.47-1,0.83-1.63,1.08
					c-0.64,0.25-1.35,0.38-2.14,0.38c-0.79,0-1.49-0.13-2.12-0.38c-0.62-0.25-1.17-0.61-1.62-1.08c-0.46-0.48-0.81-1.03-1.05-1.68
					c-0.23-0.64-0.35-1.36-0.35-2.13c0-0.79,0.12-1.51,0.36-2.16c0.24-0.65,0.59-1.21,1.04-1.67c0.45-0.46,0.99-0.82,1.63-1.07
					c0.64-0.25,1.35-0.37,2.12-0.37c0.79,0,1.5,0.12,2.14,0.38c0.64,0.25,1.18,0.62,1.64,1.08c0.46,0.47,0.8,1.03,1.04,1.67
					C503.13,38.77,503.25,39.47,503.25,40.26 M500.64,40.26c0-1.06-0.23-1.88-0.7-2.47c-0.46-0.6-1.09-0.89-1.88-0.89
					c-0.51,0-0.96,0.13-1.34,0.39c-0.39,0.26-0.68,0.65-0.89,1.16c-0.21,0.51-0.31,1.11-0.31,1.8c0,0.68,0.1,1.27,0.31,1.77
					c0.21,0.51,0.5,0.9,0.89,1.17c0.38,0.27,0.83,0.4,1.35,0.4c0.79,0,1.41-0.3,1.88-0.89C500.41,42.12,500.64,41.3,500.64,40.26"/>
				<path class="st4" d="M513.14,40.45v3.45c0,0.55-0.12,0.95-0.37,1.23c-0.25,0.27-0.57,0.41-0.98,0.41
					c-0.39,0-0.71-0.13-0.95-0.41c-0.25-0.28-0.37-0.68-0.37-1.23v-4.13c0-0.65-0.02-1.16-0.06-1.53c-0.04-0.35-0.17-0.65-0.36-0.88
					c-0.2-0.23-0.51-0.35-0.93-0.35c-0.85,0-1.41,0.29-1.68,0.88c-0.27,0.58-0.41,1.41-0.41,2.51v3.5c0,0.54-0.12,0.95-0.36,1.22
					c-0.25,0.27-0.57,0.41-0.96,0.41c-0.4,0-0.72-0.14-0.97-0.41c-0.25-0.28-0.38-0.69-0.38-1.22v-7.42c0-0.49,0.11-0.86,0.34-1.11
					c0.23-0.26,0.53-0.38,0.89-0.38c0.36,0,0.65,0.12,0.89,0.36c0.24,0.24,0.35,0.57,0.35,0.98v0.24c0.45-0.54,0.94-0.93,1.45-1.18
					c0.52-0.26,1.08-0.39,1.71-0.39c0.65,0,1.21,0.13,1.68,0.39c0.47,0.26,0.85,0.65,1.16,1.18c0.44-0.53,0.91-0.92,1.41-1.18
					c0.5-0.26,1.05-0.39,1.66-0.39c0.71,0,1.32,0.14,1.83,0.42c0.51,0.28,0.89,0.68,1.15,1.2c0.22,0.47,0.33,1.21,0.33,2.22v5.06
					c0,0.55-0.12,0.95-0.37,1.23c-0.25,0.27-0.57,0.41-0.98,0.41c-0.39,0-0.71-0.14-0.96-0.41c-0.25-0.28-0.38-0.69-0.38-1.22v-4.36
					c0-0.56-0.02-1-0.07-1.34c-0.05-0.34-0.18-0.62-0.38-0.85c-0.21-0.23-0.53-0.34-0.95-0.34c-0.34,0-0.67,0.11-0.97,0.31
					c-0.31,0.2-0.55,0.48-0.72,0.81C513.24,38.56,513.14,39.34,513.14,40.45"/>
			</g>
			<g>
				<path class="st4" d="M392.44,39.63c0,0,0-0.01,0-0.02C392.43,39.62,392.43,39.62,392.44,39.63z"/>
				<path class="st4" d="M392.57,40.46C392.57,40.46,392.57,40.46,392.57,40.46c-0.05-0.24-0.09-0.47-0.12-0.7
					C392.48,39.99,392.52,40.22,392.57,40.46z"/>
				<path class="st4" d="M393.42,42.87c-0.01-0.01-0.01-0.02-0.02-0.03C393.41,42.84,393.42,42.86,393.42,42.87z"/>
				<path class="st4" d="M393.34,42.71c-0.02-0.05-0.04-0.09-0.07-0.13C393.3,42.62,393.32,42.66,393.34,42.71z"/>
				<path class="st4" d="M392.81,41.38c0.13,0.4,0.28,0.79,0.46,1.16C393.08,42.17,392.93,41.78,392.81,41.38
					C392.81,41.38,392.81,41.38,392.81,41.38z"/>
				<path class="st4" d="M402.47,29.69c0.5,0,0.87,0.04,1.3,0.11l0.12-0.76c0,0-1.17-0.36-2.71-0.23l-0.12-0.41
					c0.48-0.1,0.84-0.53,0.84-1.04c0-0.58-0.47-1.05-1.06-1.05c-0.58,0-1.06,0.47-1.06,1.05c0,0.51,0.36,0.93,0.84,1.04l0.13,0.46
					c-1.63,0.22-2.94,0.86-2.94,0.86l0.23,0.71c0.99-0.33,1.85-0.53,2.62-0.61C401.43,29.73,402.01,29.69,402.47,29.69z"/>
				<path class="st4" d="M393.41,33.55L393.41,33.55c0.04-0.06,0.08-0.1,0.12-0.15l-0.31-0.22l-0.49-0.36
					c-0.03,0.04-0.79,0.74-1.4,2.05c-0.03-0.04-0.06-0.08-0.09-0.12c-0.18-0.2-0.44-0.3-0.76-0.29c0,0-0.01,0-0.02,0
					c-0.2,0-0.34-0.07-0.43-0.15c0.09-0.11,0.14-0.26,0.14-0.41c0-0.37-0.3-0.67-0.67-0.67c-0.37,0-0.67,0.3-0.67,0.67
					c0,0.37,0.3,0.67,0.67,0.67c0.06,0,0.11-0.01,0.17-0.02c0.16,0.18,0.42,0.34,0.81,0.33c0.2,0,0.34,0.05,0.44,0.16
					c0.11,0.12,0.15,0.29,0.16,0.43c0,0,0,0,0,0c-0.44,1.19-0.31,2.67-0.31,2.67l1.06,0.04c0.02-0.54,0.1-1.48,0.37-2.23
					C392.72,34.5,393.38,33.59,393.41,33.55z"/>
				<path class="st4" d="M411.67,30.58c-0.37,0-0.67,0.3-0.67,0.67c0,0.06,0.01,0.11,0.02,0.16c-0.18,0.17-0.34,0.43-0.34,0.81
					c0,0.2-0.05,0.34-0.15,0.44c-0.08,0.07-0.19,0.12-0.29,0.14c-0.79-1.1-1.76-1.78-1.76-1.78l-0.76,0.81
					c0.57,0.52,1.16,1.18,1.73,1.99c0.39,0.56,0.8,1.29,1.14,2.02l1.02-0.49c0,0-0.47-1.16-1.12-2.19c0.11-0.04,0.23-0.1,0.33-0.19
					c0.2-0.18,0.3-0.44,0.29-0.76c0-0.21,0.07-0.35,0.15-0.44c0.12,0.09,0.26,0.14,0.41,0.14c0.37,0,0.67-0.3,0.67-0.67
					C412.34,30.88,412.04,30.58,411.67,30.58z"/>
				<path class="st4" d="M409.02,39.78c-1.41,0.69-3.73,1.59-6.78,2.02c-1.2,0.17-2.36,0.23-3.43,0.23c-1.39,0-2.62-0.1-3.56-0.22
					c-1.08-0.13-1.92-0.3-2.43-0.42c0.12,0.39,0.27,0.78,0.45,1.16c0,0.01,0.01,0.02,0.01,0.03c0.02,0.04,0.04,0.09,0.07,0.13
					c0.02,0.04,0.04,0.09,0.07,0.13c0.01,0.01,0.01,0.02,0.02,0.03c0.3,0.57,0.67,1.09,1.08,1.55c1.44,1.57,2.91,1.82,2.92,1.83
					l0.02,0l0.02,0.01c0.01,0.01,1.31,0.43,3.29,0.43c1.95,0,3.86-0.39,5.67-1.17c1.35-0.69,2.62-1.74,3.25-2.67
					c0.49-0.72,0.84-1.49,1.05-2.29c0.11-0.43,0.2-1.11,0.15-1.83C410.49,38.99,409.86,39.37,409.02,39.78z"/>
				<path class="st4" d="M393.86,33.88c-0.04,0.06-0.65,0.93-1.13,2.25c-0.36,0.99-0.35,2.44-0.35,2.46v0
					c0,0.34,0.02,0.68,0.06,1.01c0,0.01,0,0.01,0,0.02c0,0.04,0.01,0.08,0.02,0.13c0.03,0.23,0.07,0.47,0.12,0.7
					c0.7,0.18,4.88,1.15,9.55,0.5c2.93-0.41,5.15-1.27,6.5-1.93c1.12-0.54,1.84-1.04,2.12-1.24c-0.28-1.03-1.04-2.64-1.74-3.65
					c-2.01-2.87-4.17-3.6-5.28-3.78c-0.42-0.07-0.76-0.11-1.24-0.11c-0.45,0-1,0.04-1.74,0.12c-0.74,0.08-1.57,0.27-2.53,0.6
					c-1.35,0.45-2.57,1.16-3.53,2.05l-0.03,0.03C394.5,33.18,394.2,33.45,393.86,33.88z M406.13,33.22c0.96,0,1.74,0.78,1.74,1.74
					c0,0.96-0.78,1.74-1.74,1.74c-0.96,0-1.74-0.78-1.74-1.74C404.38,34,405.17,33.22,406.13,33.22z M397.89,33.15
					c1.56,0,2.82,1.26,2.82,2.82c0,1.55-1.26,2.81-2.82,2.81c-1.55,0-2.82-1.26-2.82-2.81C395.07,34.41,396.33,33.15,397.89,33.15z"
					/>
			</g>
		</g>
	</g>
</g>
</svg>
